<svg xmlns="http://www.w3.org/2000/svg" xmlns:xlink="http://www.w3.org/1999/xlink" width="1428" height="211pt" viewBox="0 0 1071 211"><g id="graph0" class="graph" transform="scale(1 1) rotate(0) translate(4 207)"><title>dependencies</title><polygon fill="#fff" stroke="transparent" points="-4 4 -4 -207 1067 -207 1067 4 -4 4"/><text x="510.509" y="-42.4" fill="#000" font-family="sans-serif" font-size="14" font-weight="bold" text-anchor="start">Legend</text><polygon fill="#ffffb3" stroke="transparent" points="297.5 -10 297.5 -30 317.5 -30 317.5 -10 297.5 -10"/><text x="321.129" y="-15.4" fill="#000" font-family="sans-serif" font-size="14" text-anchor="start">Declarations</text><polygon fill="#8dd3c7" stroke="transparent" points="410.5 -10 410.5 -30 430.5 -30 430.5 -10 410.5 -10"/><text x="434.225" y="-15.4" fill="#000" font-family="sans-serif" font-size="14" text-anchor="start">Module</text><polygon fill="#80b1d3" stroke="transparent" points="496.5 -10 496.5 -30 516.5 -30 516.5 -10 496.5 -10"/><text x="520.281" y="-15.4" fill="#000" font-family="sans-serif" font-size="14" text-anchor="start">Bootstrap</text><polygon fill="#fdb462" stroke="transparent" points="593.5 -10 593.5 -30 613.5 -30 613.5 -10 593.5 -10"/><text x="617.173" y="-15.4" fill="#000" font-family="sans-serif" font-size="14" text-anchor="start">Providers</text><polygon fill="#fb8072" stroke="transparent" points="689.5 -10 689.5 -30 709.5 -30 709.5 -10 689.5 -10"/><text x="713.226" y="-15.4" fill="#000" font-family="sans-serif" font-size="14" text-anchor="start">Exports</text><g id="clust1" class="cluster"><title>cluster_CheckoutModule</title><polygon fill="none" stroke="#000" stroke-dasharray="1 5" points="8 -70 8 -195 1055 -195 1055 -70 8 -70"/></g><g id="clust3" class="cluster"><title>cluster_CheckoutModule_imports</title><polygon fill="none" stroke="#000" points="196 -78 196 -130 1047 -130 1047 -78 196 -78"/></g><g id="clust6" class="cluster"><title>cluster_CheckoutModule_providers</title><polygon fill="none" stroke="#000" points="16 -78 16 -130 188 -130 188 -78 16 -78"/></g><g id="node1" class="node"><title>CommonModule</title><polygon fill="#8dd3c7" stroke="#000" points="1038.668 -122 1035.668 -126 1014.668 -126 1011.668 -122 927.332 -122 927.332 -86 1038.668 -86 1038.668 -122"/><text x="983" y="-99.8" fill="#000" font-family="Times,serif" font-size="14" text-anchor="middle">CommonModule</text></g><g id="node7" class="node"><title>CheckoutModule</title><polygon fill="#8dd3c7" stroke="#000" points="552.706 -187 549.706 -191 528.706 -191 525.706 -187 439.294 -187 439.294 -151 552.706 -151 552.706 -187"/><text x="496" y="-164.8" fill="#000" font-family="Times,serif" font-size="14" text-anchor="middle">CheckoutModule</text></g><g id="edge1" class="edge"><title>CommonModule-&gt;CheckoutModule</title><path fill="none" stroke="#000" d="M983,-122.2843C983,-143.3211 983,-175 983,-175 983,-175 562.8182,-175 562.8182,-175"/><polygon fill="#000" stroke="#000" points="562.818 -171.5 552.818 -175 562.818 -178.5 562.818 -171.5"/></g><g id="node2" class="node"><title>RouterModule.forChild(args)</title><polygon fill="#8dd3c7" stroke="#000" points="909.732 -122 906.732 -126 885.732 -126 882.732 -122 728.268 -122 728.268 -86 909.732 -86 909.732 -122"/><text x="819" y="-99.8" fill="#000" font-family="Times,serif" font-size="14" text-anchor="middle">RouterModule.forChild(args)</text></g><g id="edge2" class="edge"><title>RouterModule.forChild(args)-&gt;CheckoutModule</title><path fill="none" stroke="#000" d="M819,-122.0225C819,-139.3734 819,-163 819,-163 819,-163 562.6319,-163 562.6319,-163"/><polygon fill="#000" stroke="#000" points="562.632 -159.5 552.632 -163 562.632 -166.5 562.632 -159.5"/></g><g id="node3" class="node"><title>EffectsModule.run(args)</title><polygon fill="#8dd3c7" stroke="#000" points="709.99 -122 706.99 -126 685.99 -126 682.99 -122 556.01 -122 556.01 -86 709.99 -86 709.99 -122"/><text x="633" y="-99.8" fill="#000" font-family="Times,serif" font-size="14" text-anchor="middle">EffectsModule.run(args)</text></g><g id="edge3" class="edge"><title>EffectsModule.run(args)-&gt;CheckoutModule</title><path fill="none" stroke="#000" d="M555.9788,-104C549.4153,-104 545.2146,-104 545.2146,-104 545.2146,-104 545.2146,-140.8939 545.2146,-140.8939"/><polygon fill="#000" stroke="#000" points="541.715 -140.894 545.215 -150.894 548.715 -140.894 541.715 -140.894"/></g><g id="node4" class="node"><title>CartModule</title><polygon fill="#8dd3c7" stroke="#000" points="537.653 -122 534.653 -126 513.653 -126 510.653 -122 454.347 -122 454.347 -86 537.653 -86 537.653 -122"/><text x="496" y="-99.8" fill="#000" font-family="Times,serif" font-size="14" text-anchor="middle">CartModule</text></g><g id="edge4" class="edge"><title>CartModule-&gt;CheckoutModule</title><path fill="none" stroke="#000" d="M496,-122.1061C496,-122.1061 496,-140.991 496,-140.991"/><polygon fill="#000" stroke="#000" points="492.5 -140.991 496 -150.991 499.5 -140.991 492.5 -140.991"/></g><g id="node5" class="node"><title>AddressModule</title><polygon fill="#8dd3c7" stroke="#000" points="435.922 -122 432.922 -126 411.922 -126 408.922 -122 330.078 -122 330.078 -86 435.922 -86 435.922 -122"/><text x="383" y="-99.8" fill="#000" font-family="Times,serif" font-size="14" text-anchor="middle">AddressModule</text></g><g id="edge5" class="edge"><title>AddressModule-&gt;CheckoutModule</title><path fill="none" stroke="#000" d="M435.9651,-104C442.4163,-104 446.7854,-104 446.7854,-104 446.7854,-104 446.7854,-140.8939 446.7854,-140.8939"/><polygon fill="#000" stroke="#000" points="443.286 -140.894 446.785 -150.894 450.286 -140.894 443.286 -140.894"/></g><g id="node6" class="node"><title>PaymentModule</title><polygon fill="#8dd3c7" stroke="#000" points="312.044 -122 309.044 -126 288.044 -126 285.044 -122 203.956 -122 203.956 -86 312.044 -86 312.044 -122"/><text x="258" y="-99.8" fill="#000" font-family="Times,serif" font-size="14" text-anchor="middle">PaymentModule</text></g><g id="edge6" class="edge"><title>PaymentModule-&gt;CheckoutModule</title><path fill="none" stroke="#000" d="M258,-122.0225C258,-139.3734 258,-163 258,-163 258,-163 429.2954,-163 429.2954,-163"/><polygon fill="#000" stroke="#000" points="429.296 -166.5 439.295 -163 429.295 -159.5 429.296 -166.5"/></g><g id="node8" class="node"><title>CheckoutActions</title><ellipse cx="102" cy="-104" fill="#fdb462" stroke="#000" rx="78.171" ry="18"/><text x="102" y="-99.8" fill="#000" font-family="Times,serif" font-size="14" text-anchor="middle">CheckoutActions</text></g><g id="edge7" class="edge"><title>CheckoutActions-&gt;CheckoutModule</title><path fill="none" stroke="#000" d="M102,-122.2843C102,-143.3211 102,-175 102,-175 102,-175 429.1298,-175 429.1298,-175"/><polygon fill="#000" stroke="#000" points="429.13 -178.5 439.13 -175 429.13 -171.5 429.13 -178.5"/></g></g></svg>