<svg xmlns="http://www.w3.org/2000/svg" xmlns:xlink="http://www.w3.org/1999/xlink" width="1484" height="211pt" viewBox="0 0 1113 211"><g id="graph0" class="graph" transform="scale(1 1) rotate(0) translate(4 207)"><title>dependencies</title><polygon fill="#fff" stroke="transparent" points="-4 4 -4 -207 1109 -207 1109 4 -4 4"/><text x="531.509" y="-42.4" fill="#000" font-family="sans-serif" font-size="14" font-weight="bold" text-anchor="start">Legend</text><polygon fill="#ffffb3" stroke="transparent" points="318.5 -10 318.5 -30 338.5 -30 338.5 -10 318.5 -10"/><text x="342.129" y="-15.4" fill="#000" font-family="sans-serif" font-size="14" text-anchor="start">Declarations</text><polygon fill="#8dd3c7" stroke="transparent" points="431.5 -10 431.5 -30 451.5 -30 451.5 -10 431.5 -10"/><text x="455.225" y="-15.4" fill="#000" font-family="sans-serif" font-size="14" text-anchor="start">Module</text><polygon fill="#80b1d3" stroke="transparent" points="517.5 -10 517.5 -30 537.5 -30 537.5 -10 517.5 -10"/><text x="541.281" y="-15.4" fill="#000" font-family="sans-serif" font-size="14" text-anchor="start">Bootstrap</text><polygon fill="#fdb462" stroke="transparent" points="614.5 -10 614.5 -30 634.5 -30 634.5 -10 614.5 -10"/><text x="638.173" y="-15.4" fill="#000" font-family="sans-serif" font-size="14" text-anchor="start">Providers</text><polygon fill="#fb8072" stroke="transparent" points="710.5 -10 710.5 -30 730.5 -30 730.5 -10 710.5 -10"/><text x="734.226" y="-15.4" fill="#000" font-family="sans-serif" font-size="14" text-anchor="start">Exports</text><g id="clust1" class="cluster"><title>cluster_CartModule</title><polygon fill="none" stroke="#000" stroke-dasharray="1 5" points="8 -70 8 -195 1097 -195 1097 -70 8 -70"/></g><g id="clust2" class="cluster"><title>cluster_CartModule_declarations</title><polygon fill="none" stroke="#000" points="268 -78 268 -130 1089 -130 1089 -78 268 -78"/></g><g id="clust8" class="cluster"><title>cluster_CartModule_imports</title><polygon fill="none" stroke="#000" points="16 -78 16 -130 260 -130 260 -78 16 -78"/></g><g id="node1" class="node"><title>CartComponent</title><polygon fill="#ffffb3" stroke="#000" points="1080.936 -122 975.064 -122 975.064 -86 1080.936 -86 1080.936 -122"/><text x="1028" y="-99.8" fill="#000" font-family="Times,serif" font-size="14" text-anchor="middle">CartComponent</text></g><g id="node6" class="node"><title>CartModule</title><polygon fill="#8dd3c7" stroke="#000" points="576.653 -187 573.653 -191 552.653 -191 549.653 -187 493.347 -187 493.347 -151 576.653 -151 576.653 -187"/><text x="535" y="-164.8" fill="#000" font-family="Times,serif" font-size="14" text-anchor="middle">CartModule</text></g><g id="edge1" class="edge"><title>CartComponent-&gt;CartModule</title><path fill="none" stroke="#000" d="M1028,-122.2921C1028,-144.2057 1028,-178 1028,-178 1028,-178 587.0329,-178 587.0329,-178"/><polygon fill="#000" stroke="#000" points="587.033 -174.5 577.033 -178 587.033 -181.5 587.033 -174.5"/></g><g id="node2" class="node"><title>LineItemListComponent</title><polygon fill="#ffffb3" stroke="#000" points="957.426 -122 802.574 -122 802.574 -86 957.426 -86 957.426 -122"/><text x="880" y="-99.8" fill="#000" font-family="Times,serif" font-size="14" text-anchor="middle">LineItemListComponent</text></g><g id="edge2" class="edge"><title>LineItemListComponent-&gt;CartModule</title><path fill="none" stroke="#000" d="M880,-122.1061C880,-141.3391 880,-169 880,-169 880,-169 586.9589,-169 586.9589,-169"/><polygon fill="#000" stroke="#000" points="586.959 -165.5 576.959 -169 586.959 -172.5 586.959 -165.5"/></g><g id="node3" class="node"><title>LineItemComponent</title><polygon fill="#ffffb3" stroke="#000" points="784.147 -122 651.853 -122 651.853 -86 784.147 -86 784.147 -122"/><text x="718" y="-99.8" fill="#000" font-family="Times,serif" font-size="14" text-anchor="middle">LineItemComponent</text></g><g id="edge3" class="edge"><title>LineItemComponent-&gt;CartModule</title><path fill="none" stroke="#000" d="M718,-122.027C718,-138.3976 718,-160 718,-160 718,-160 586.9839,-160 586.9839,-160"/><polygon fill="#000" stroke="#000" points="586.984 -156.5 576.984 -160 586.984 -163.5 586.984 -156.5"/></g><g id="node4" class="node"><title>OrderTotalSummaryComponent</title><polygon fill="#ffffb3" stroke="#000" points="633.962 -122 436.038 -122 436.038 -86 633.962 -86 633.962 -122"/><text x="535" y="-99.8" fill="#000" font-family="Times,serif" font-size="14" text-anchor="middle">OrderTotalSummaryComponent</text></g><g id="edge4" class="edge"><title>OrderTotalSummaryComponent-&gt;CartModule</title><path fill="none" stroke="#000" d="M535,-122.1061C535,-122.1061 535,-140.991 535,-140.991"/><polygon fill="#000" stroke="#000" points="531.5 -140.991 535 -150.991 538.5 -140.991 531.5 -140.991"/></g><g id="node5" class="node"><title>EmptyCartComponent</title><polygon fill="#ffffb3" stroke="#000" points="418.269 -122 275.731 -122 275.731 -86 418.269 -86 418.269 -122"/><text x="347" y="-99.8" fill="#000" font-family="Times,serif" font-size="14" text-anchor="middle">EmptyCartComponent</text></g><g id="edge5" class="edge"><title>EmptyCartComponent-&gt;CartModule</title><path fill="none" stroke="#000" d="M347,-122.027C347,-138.3976 347,-160 347,-160 347,-160 483.2767,-160 483.2767,-160"/><polygon fill="#000" stroke="#000" points="483.277 -163.5 493.277 -160 483.277 -156.5 483.277 -163.5"/></g><g id="node7" class="node"><title>CommonModule</title><polygon fill="#8dd3c7" stroke="#000" points="251.668 -122 248.668 -126 227.668 -126 224.668 -122 140.332 -122 140.332 -86 251.668 -86 251.668 -122"/><text x="196" y="-99.8" fill="#000" font-family="Times,serif" font-size="14" text-anchor="middle">CommonModule</text></g><g id="edge6" class="edge"><title>CommonModule-&gt;CartModule</title><path fill="none" stroke="#000" d="M196,-122.1061C196,-141.3391 196,-169 196,-169 196,-169 483.0919,-169 483.0919,-169"/><polygon fill="#000" stroke="#000" points="483.092 -172.5 493.092 -169 483.092 -165.5 483.092 -172.5"/></g><g id="node8" class="node"><title>RouterModule</title><polygon fill="#8dd3c7" stroke="#000" points="121.653 -122 118.653 -126 97.653 -126 94.653 -122 24.347 -122 24.347 -86 121.653 -86 121.653 -122"/><text x="73" y="-99.8" fill="#000" font-family="Times,serif" font-size="14" text-anchor="middle">RouterModule</text></g><g id="edge7" class="edge"><title>RouterModule-&gt;CartModule</title><path fill="none" stroke="#000" d="M73,-122.2921C73,-144.2057 73,-178 73,-178 73,-178 483.1857,-178 483.1857,-178"/><polygon fill="#000" stroke="#000" points="483.186 -181.5 493.186 -178 483.186 -174.5 483.186 -181.5"/></g></g></svg>