<svg xmlns="http://www.w3.org/2000/svg" xmlns:xlink="http://www.w3.org/1999/xlink" width="1607pt" height="211pt" viewBox="0 0 1607 211"><g id="graph0" class="graph" transform="scale(1 1) rotate(0) translate(4 207)"><title>dependencies</title><polygon fill="#fff" stroke="transparent" points="-4 4 -4 -207 1603 -207 1603 4 -4 4"/><text x="778.509" y="-42.4" fill="#000" font-family="sans-serif" font-size="14" font-weight="bold" text-anchor="start">Legend</text><polygon fill="#ffffb3" stroke="transparent" points="565.5 -10 565.5 -30 585.5 -30 585.5 -10 565.5 -10"/><text x="589.129" y="-15.4" fill="#000" font-family="sans-serif" font-size="14" text-anchor="start">Declarations</text><polygon fill="#8dd3c7" stroke="transparent" points="678.5 -10 678.5 -30 698.5 -30 698.5 -10 678.5 -10"/><text x="702.225" y="-15.4" fill="#000" font-family="sans-serif" font-size="14" text-anchor="start">Module</text><polygon fill="#80b1d3" stroke="transparent" points="764.5 -10 764.5 -30 784.5 -30 784.5 -10 764.5 -10"/><text x="788.281" y="-15.4" fill="#000" font-family="sans-serif" font-size="14" text-anchor="start">Bootstrap</text><polygon fill="#fdb462" stroke="transparent" points="861.5 -10 861.5 -30 881.5 -30 881.5 -10 861.5 -10"/><text x="885.173" y="-15.4" fill="#000" font-family="sans-serif" font-size="14" text-anchor="start">Providers</text><polygon fill="#fb8072" stroke="transparent" points="957.5 -10 957.5 -30 977.5 -30 977.5 -10 957.5 -10"/><text x="981.226" y="-15.4" fill="#000" font-family="sans-serif" font-size="14" text-anchor="start">Exports</text><g id="clust1" class="cluster"><title>cluster_UserModule</title><polygon fill="none" stroke="#000" stroke-dasharray="1 5" points="8 -70 8 -195 1591 -195 1591 -70 8 -70"/></g><g id="clust2" class="cluster"><title>cluster_UserModule_declarations</title><polygon fill="none" stroke="#000" points="338 -78 338 -130 1583 -130 1583 -78 338 -78"/></g><g id="clust11" class="cluster"><title>cluster_UserModule_imports</title><polygon fill="none" stroke="#000" points="16 -78 16 -130 330 -130 330 -78 16 -78"/></g><g id="node1" class="node"><title>OverviewComponent</title><polygon fill="#ffffb3" stroke="#000" points="1575.027 -122 1438.973 -122 1438.973 -86 1575.027 -86 1575.027 -122"/><text x="1507" y="-99.8" fill="#000" font-family="Times,serif" font-size="14" text-anchor="middle">OverviewComponent</text></g><g id="node9" class="node"><title>UserModule</title><polygon fill="#8dd3c7" stroke="#000" points="842.976 -187 839.976 -191 818.976 -191 815.976 -187 757.024 -187 757.024 -151 842.976 -151 842.976 -187"/><text x="800" y="-164.8" fill="#000" font-family="Times,serif" font-size="14" text-anchor="middle">UserModule</text></g><g id="edge1" class="edge"><title>OverviewComponent-&gt;UserModule</title><path fill="none" stroke="#000" d="M1507,-122.0109C1507,-144.4852 1507,-180 1507,-180 1507,-180 853.1617,-180 853.1617,-180"/><polygon fill="#000" stroke="#000" points="853.162 -176.5 843.162 -180 853.162 -183.5 853.162 -176.5"/></g><g id="node2" class="node"><title>OrderListItemComponent</title><polygon fill="#ffffb3" stroke="#000" points="1420.91 -122 1259.09 -122 1259.09 -86 1420.91 -86 1420.91 -122"/><text x="1340" y="-99.8" fill="#000" font-family="Times,serif" font-size="14" text-anchor="middle">OrderListItemComponent</text></g><g id="edge2" class="edge"><title>OrderListItemComponent-&gt;UserModule</title><path fill="none" stroke="#000" d="M1340,-122.1289C1340,-142.5724 1340,-173 1340,-173 1340,-173 853.2776,-173 853.2776,-173"/><polygon fill="#000" stroke="#000" points="853.278 -169.5 843.278 -173 853.278 -176.5 853.278 -169.5"/></g><g id="node3" class="node"><title>OrdersComponent</title><polygon fill="#ffffb3" stroke="#000" points="1241.92 -122 1122.08 -122 1122.08 -86 1241.92 -86 1241.92 -122"/><text x="1182" y="-99.8" fill="#000" font-family="Times,serif" font-size="14" text-anchor="middle">OrdersComponent</text></g><g id="edge3" class="edge"><title>OrdersComponent-&gt;UserModule</title><path fill="none" stroke="#000" d="M1182,-122.2667C1182,-140.5552 1182,-166 1182,-166 1182,-166 853.0777,-166 853.0777,-166"/><polygon fill="#000" stroke="#000" points="853.078 -162.5 843.078 -166 853.078 -169.5 853.078 -162.5"/></g><g id="node4" class="node"><title>ReturnsComponent</title><polygon fill="#ffffb3" stroke="#000" points="1104.38 -122 979.62 -122 979.62 -86 1104.38 -86 1104.38 -122"/><text x="1042" y="-99.8" fill="#000" font-family="Times,serif" font-size="14" text-anchor="middle">ReturnsComponent</text></g><g id="edge4" class="edge"><title>ReturnsComponent-&gt;UserModule</title><path fill="none" stroke="#000" d="M1042,-122.0091C1042,-138.0494 1042,-159 1042,-159 1042,-159 852.9859,-159 852.9859,-159"/><polygon fill="#000" stroke="#000" points="852.986 -155.5 842.986 -159 852.986 -162.5 852.986 -155.5"/></g><g id="node5" class="node"><title>ReturnListItemComponent</title><polygon fill="#ffffb3" stroke="#000" points="961.37 -122 794.63 -122 794.63 -86 961.37 -86 961.37 -122"/><text x="878" y="-99.8" fill="#000" font-family="Times,serif" font-size="14" text-anchor="middle">ReturnListItemComponent</text></g><g id="edge5" class="edge"><title>ReturnListItemComponent-&gt;UserModule</title><path fill="none" stroke="#000" d="M818.7767,-122.1061C818.7767,-122.1061 818.7767,-140.991 818.7767,-140.991"/><polygon fill="#000" stroke="#000" points="815.277 -140.991 818.777 -150.991 822.277 -140.991 815.277 -140.991"/></g><g id="node6" class="node"><title>UserComponent</title><polygon fill="#ffffb3" stroke="#000" points="776.759 -122 669.241 -122 669.241 -86 776.759 -86 776.759 -122"/><text x="723" y="-99.8" fill="#000" font-family="Times,serif" font-size="14" text-anchor="middle">UserComponent</text></g><g id="edge6" class="edge"><title>UserComponent-&gt;UserModule</title><path fill="none" stroke="#000" d="M766.9457,-122.1061C766.9457,-122.1061 766.9457,-140.991 766.9457,-140.991"/><polygon fill="#000" stroke="#000" points="763.446 -140.991 766.946 -150.991 770.446 -140.991 763.446 -140.991"/></g><g id="node7" class="node"><title>AddressesComponent</title><polygon fill="#ffffb3" stroke="#000" points="651.363 -122 512.637 -122 512.637 -86 651.363 -86 651.363 -122"/><text x="582" y="-99.8" fill="#000" font-family="Times,serif" font-size="14" text-anchor="middle">AddressesComponent</text></g><g id="edge7" class="edge"><title>AddressesComponent-&gt;UserModule</title><path fill="none" stroke="#000" d="M582,-122.0091C582,-138.0494 582,-159 582,-159 582,-159 746.9302,-159 746.9302,-159"/><polygon fill="#000" stroke="#000" points="746.93 -162.5 756.93 -159 746.93 -155.5 746.93 -162.5"/></g><g id="node8" class="node"><title>OrderDetailComponent</title><polygon fill="#ffffb3" stroke="#000" points="494.183 -122 345.817 -122 345.817 -86 494.183 -86 494.183 -122"/><text x="420" y="-99.8" fill="#000" font-family="Times,serif" font-size="14" text-anchor="middle">OrderDetailComponent</text></g><g id="edge8" class="edge"><title>OrderDetailComponent-&gt;UserModule</title><path fill="none" stroke="#000" d="M420,-122.2667C420,-140.5552 420,-166 420,-166 420,-166 746.7791,-166 746.7791,-166"/><polygon fill="#000" stroke="#000" points="746.779 -169.5 756.779 -166 746.779 -162.5 746.779 -169.5"/></g><g id="node10" class="node"><title>RouterModule.forChild(args)</title><polygon fill="#8dd3c7" stroke="#000" points="321.732 -122 318.732 -126 297.732 -126 294.732 -122 140.268 -122 140.268 -86 321.732 -86 321.732 -122"/><text x="231" y="-99.8" fill="#000" font-family="Times,serif" font-size="14" text-anchor="middle">RouterModule.forChild(args)</text></g><g id="edge9" class="edge"><title>RouterModule.forChild(args)-&gt;UserModule</title><path fill="none" stroke="#000" d="M231,-122.1289C231,-142.5724 231,-173 231,-173 231,-173 746.7655,-173 746.7655,-173"/><polygon fill="#000" stroke="#000" points="746.765 -176.5 756.765 -173 746.765 -169.5 746.765 -176.5"/></g><g id="node11" class="node"><title>SharedModule</title><polygon fill="#8dd3c7" stroke="#000" points="122.423 -122 119.423 -126 98.423 -126 95.423 -122 23.577 -122 23.577 -86 122.423 -86 122.423 -122"/><text x="73" y="-99.8" fill="#000" font-family="Times,serif" font-size="14" text-anchor="middle">SharedModule</text></g><g id="edge10" class="edge"><title>SharedModule-&gt;UserModule</title><path fill="none" stroke="#000" d="M73,-122.0109C73,-144.4852 73,-180 73,-180 73,-180 746.9689,-180 746.9689,-180"/><polygon fill="#000" stroke="#000" points="746.969 -183.5 756.969 -180 746.969 -176.5 746.969 -183.5"/></g></g></svg>