<svg xmlns="http://www.w3.org/2000/svg" xmlns:xlink="http://www.w3.org/1999/xlink" width="1211pt" height="284pt" viewBox="0 0 1211 284"><g id="graph0" class="graph" transform="scale(1 1) rotate(0) translate(4 280)"><title>dependencies</title><polygon fill="#fff" stroke="transparent" points="-4 4 -4 -280 1207 -280 1207 4 -4 4"/><text x="580.509" y="-42.4" fill="#000" font-family="sans-serif" font-size="14" font-weight="bold" text-anchor="start">Legend</text><polygon fill="#ffffb3" stroke="transparent" points="367.5 -10 367.5 -30 387.5 -30 387.5 -10 367.5 -10"/><text x="391.129" y="-15.4" fill="#000" font-family="sans-serif" font-size="14" text-anchor="start">Declarations</text><polygon fill="#8dd3c7" stroke="transparent" points="480.5 -10 480.5 -30 500.5 -30 500.5 -10 480.5 -10"/><text x="504.225" y="-15.4" fill="#000" font-family="sans-serif" font-size="14" text-anchor="start">Module</text><polygon fill="#80b1d3" stroke="transparent" points="566.5 -10 566.5 -30 586.5 -30 586.5 -10 566.5 -10"/><text x="590.281" y="-15.4" fill="#000" font-family="sans-serif" font-size="14" text-anchor="start">Bootstrap</text><polygon fill="#fdb462" stroke="transparent" points="663.5 -10 663.5 -30 683.5 -30 683.5 -10 663.5 -10"/><text x="687.173" y="-15.4" fill="#000" font-family="sans-serif" font-size="14" text-anchor="start">Providers</text><polygon fill="#fb8072" stroke="transparent" points="759.5 -10 759.5 -30 779.5 -30 779.5 -10 759.5 -10"/><text x="783.226" y="-15.4" fill="#000" font-family="sans-serif" font-size="14" text-anchor="start">Exports</text><g id="clust1" class="cluster"><title>cluster_SharedModule</title><polygon fill="none" stroke="#000" stroke-dasharray="1 5" points="8 -70 8 -268 1195 -268 1195 -70 8 -70"/></g><g id="clust2" class="cluster"><title>cluster_SharedModule_declarations</title><polygon fill="none" stroke="#000" points="622 -78 622 -130 1187 -130 1187 -78 622 -78"/></g><g id="clust7" class="cluster"><title>cluster_SharedModule_imports</title><polygon fill="none" stroke="#000" points="16 -78 16 -130 614 -130 614 -78 16 -78"/></g><g id="clust8" class="cluster"><title>cluster_SharedModule_exports</title><polygon fill="none" stroke="#000" points="34 -208 34 -260 1170 -260 1170 -208 34 -208"/></g><g id="node1" class="node"><title>LoadingIndicatorComponent</title><polygon fill="#ffffb3" stroke="#000" points="1179.022 -122 1000.978 -122 1000.978 -86 1179.022 -86 1179.022 -122"/><text x="1090" y="-99.8" fill="#000" font-family="Times,serif" font-size="14" text-anchor="middle">LoadingIndicatorComponent</text></g><g id="node5" class="node"><title>SharedModule</title><polygon fill="#8dd3c7" stroke="#000" points="626.423 -187 623.423 -191 602.423 -191 599.423 -187 527.577 -187 527.577 -151 626.423 -151 626.423 -187"/><text x="577" y="-164.8" fill="#000" font-family="Times,serif" font-size="14" text-anchor="middle">SharedModule</text></g><g id="edge1" class="edge"><title>LoadingIndicatorComponent-&gt;SharedModule</title><path fill="none" stroke="#000" d="M1081.375,-122.2222C1081.375,-140.8285 1081.375,-167 1081.375,-167 1081.375,-167 636.2799,-167 636.2799,-167"/><polygon fill="#000" stroke="#000" points="636.28 -163.5 626.28 -167 636.28 -170.5 636.28 -163.5"/></g><g id="node2" class="node"><title>NotificationComponent</title><polygon fill="#ffffb3" stroke="#000" points="982.482 -122 833.518 -122 833.518 -86 982.482 -86 982.482 -122"/><text x="908" y="-99.8" fill="#000" font-family="Times,serif" font-size="14" text-anchor="middle">NotificationComponent</text></g><g id="edge2" class="edge"><title>NotificationComponent-&gt;SharedModule</title><path fill="none" stroke="#000" d="M897.875,-122.0336C897.875,-139.0597 897.875,-162 897.875,-162 897.875,-162 636.4335,-162 636.4335,-162"/><polygon fill="#000" stroke="#000" points="636.433 -158.5 626.433 -162 636.433 -165.5 636.433 -158.5"/></g><g id="node3" class="node"><title>KeysPipe</title><polygon fill="#ffffb3" stroke="#000" points="815.654 -122 746.346 -122 746.346 -86 815.654 -86 815.654 -122"/><text x="781" y="-99.8" fill="#000" font-family="Times,serif" font-size="14" text-anchor="middle">KeysPipe</text></g><g id="edge3" class="edge"><title>KeysPipe-&gt;SharedModule</title><path fill="none" stroke="#000" d="M768.8785,-122.2396C768.8785,-137.5706 768.8785,-157 768.8785,-157 768.8785,-157 636.4135,-157 636.4135,-157"/><polygon fill="#000" stroke="#000" points="636.413 -153.5 626.413 -157 636.413 -160.5 636.413 -153.5"/></g><g id="node4" class="node"><title>HumanizePipe</title><polygon fill="#ffffb3" stroke="#000" points="728.42 -122 629.58 -122 629.58 -86 728.42 -86 728.42 -122"/><text x="679" y="-99.8" fill="#000" font-family="Times,serif" font-size="14" text-anchor="middle">HumanizePipe</text></g><g id="edge4" class="edge"><title>HumanizePipe-&gt;SharedModule</title><path fill="none" stroke="#000" d="M629.6212,-104C621.6428,-104 615.9376,-104 615.9376,-104 615.9376,-104 615.9376,-140.8939 615.9376,-140.8939"/><polygon fill="#000" stroke="#000" points="612.438 -140.894 615.938 -150.894 619.438 -140.894 612.438 -140.894"/></g><g id="node10" class="node"><title>LoadingIndicatorComponent</title><polygon fill="#fb8072" stroke="#000" points="1162.022 -252 979.978 -252 979.978 -216 1162.022 -216 1162.022 -252"/><text x="1071" y="-229.8" fill="#000" font-family="Times,serif" font-size="14" text-anchor="middle">LoadingIndicatorComponent</text></g><g id="edge9" class="edge"><title>SharedModule-&gt;LoadingIndicatorComponent</title><path fill="none" stroke="#000" stroke-dasharray="5 2" d="M626.6004,-172C736.6526,-172 991.615,-172 991.615,-172 991.615,-172 991.615,-205.7333 991.615,-205.7333"/><polygon fill="#000" stroke="#000" points="988.115 -205.733 991.615 -215.733 995.115 -205.733 988.115 -205.733"/></g><g id="node11" class="node"><title>NotificationComponent</title><polygon fill="#fb8072" stroke="#000" points="962.483 -252 809.517 -252 809.517 -216 962.483 -216 962.483 -252"/><text x="886" y="-229.8" fill="#000" font-family="Times,serif" font-size="14" text-anchor="middle">NotificationComponent</text></g><g id="edge10" class="edge"><title>SharedModule-&gt;NotificationComponent</title><path fill="none" stroke="#000" stroke-dasharray="5 2" d="M626.2273,-177C698.4548,-177 824.668,-177 824.668,-177 824.668,-177 824.668,-205.9648 824.668,-205.9648"/><polygon fill="#000" stroke="#000" points="821.168 -205.965 824.668 -215.965 828.168 -205.965 821.168 -205.965"/></g><g id="node12" class="node"><title>CommonModule</title><polygon fill="#fb8072" stroke="#000" points="791.668 -252 676.332 -252 676.332 -216 791.668 -216 791.668 -252"/><text x="734" y="-229.8" fill="#000" font-family="Times,serif" font-size="14" text-anchor="middle">CommonModule</text></g><g id="edge11" class="edge"><title>SharedModule-&gt;CommonModule</title><path fill="none" stroke="#000" stroke-dasharray="5 2" d="M626.527,-182C661.5541,-182 702.313,-182 702.313,-182 702.313,-182 702.313,-205.8129 702.313,-205.8129"/><polygon fill="#000" stroke="#000" points="698.813 -205.813 702.313 -215.813 705.813 -205.813 698.813 -205.813"/></g><g id="node13" class="node"><title>DropdownModule</title><polygon fill="#fb8072" stroke="#000" points="658.424 -252 535.576 -252 535.576 -216 658.424 -216 658.424 -252"/><text x="597" y="-229.8" fill="#000" font-family="Times,serif" font-size="14" text-anchor="middle">DropdownModule</text></g><g id="edge12" class="edge"><title>SharedModule-&gt;DropdownModule</title><path fill="none" stroke="#000" stroke-dasharray="5 2" d="M580.8747,-187.1061C580.8747,-187.1061 580.8747,-205.991 580.8747,-205.991"/><polygon fill="#000" stroke="#000" points="577.375 -205.991 580.875 -215.991 584.375 -205.991 577.375 -205.991"/></g><g id="node14" class="node"><title>FormsModule</title><polygon fill="#fb8072" stroke="#000" points="517.328 -252 418.672 -252 418.672 -216 517.328 -216 517.328 -252"/><text x="468" y="-229.8" fill="#000" font-family="Times,serif" font-size="14" text-anchor="middle">FormsModule</text></g><g id="edge13" class="edge"><title>SharedModule-&gt;FormsModule</title><path fill="none" stroke="#000" stroke-dasharray="5 2" d="M531.6636,-187.1061C531.6636,-206.3391 531.6636,-234 531.6636,-234 531.6636,-234 527.5345,-234 527.5345,-234"/><polygon fill="#000" stroke="#000" points="527.535 -230.5 517.534 -234 527.534 -237.5 527.535 -230.5"/></g><g id="node15" class="node"><title>ReactiveFormsModule</title><polygon fill="#fb8072" stroke="#000" points="400.805 -252 253.196 -252 253.196 -216 400.805 -216 400.805 -252"/><text x="327" y="-229.8" fill="#000" font-family="Times,serif" font-size="14" text-anchor="middle">ReactiveFormsModule</text></g><g id="edge14" class="edge"><title>SharedModule-&gt;ReactiveFormsModule</title><path fill="none" stroke="#000" stroke-dasharray="5 2" d="M527.6915,-182C467.7139,-182 374.375,-182 374.375,-182 374.375,-182 374.375,-205.8129 374.375,-205.8129"/><polygon fill="#000" stroke="#000" points="370.875 -205.813 374.375 -215.813 377.875 -205.813 370.875 -205.813"/></g><g id="node16" class="node"><title>KeysPipe</title><polygon fill="#fb8072" stroke="#000" points="235.654 -252 162.346 -252 162.346 -216 235.654 -216 235.654 -252"/><text x="199" y="-229.8" fill="#000" font-family="Times,serif" font-size="14" text-anchor="middle">KeysPipe</text></g><g id="edge15" class="edge"><title>SharedModule-&gt;KeysPipe</title><path fill="none" stroke="#000" stroke-dasharray="5 2" d="M527.5777,-177C431.0646,-177 226.8715,-177 226.8715,-177 226.8715,-177 226.8715,-205.9648 226.8715,-205.9648"/><polygon fill="#000" stroke="#000" points="223.371 -205.965 226.871 -215.965 230.371 -205.965 223.371 -205.965"/></g><g id="node17" class="node"><title>HumanizePipe</title><polygon fill="#fb8072" stroke="#000" points="143.919 -252 42.081 -252 42.081 -216 143.919 -216 143.919 -252"/><text x="93" y="-229.8" fill="#000" font-family="Times,serif" font-size="14" text-anchor="middle">HumanizePipe</text></g><g id="edge16" class="edge"><title>SharedModule-&gt;HumanizePipe</title><path fill="none" stroke="#000" stroke-dasharray="5 2" d="M527.4781,-172C404.1227,-172 93,-172 93,-172 93,-172 93,-205.7333 93,-205.7333"/><polygon fill="#000" stroke="#000" points="89.5 -205.733 93 -215.733 96.5 -205.733 89.5 -205.733"/></g><g id="node6" class="node"><title>FormsModule</title><polygon fill="#8dd3c7" stroke="#000" points="605.829 -122 602.829 -126 581.829 -126 578.829 -122 510.171 -122 510.171 -86 605.829 -86 605.829 -122"/><text x="558" y="-99.8" fill="#000" font-family="Times,serif" font-size="14" text-anchor="middle">FormsModule</text></g><g id="edge5" class="edge"><title>FormsModule-&gt;SharedModule</title><path fill="none" stroke="#000" d="M566.7265,-122.1061C566.7265,-122.1061 566.7265,-140.991 566.7265,-140.991"/><polygon fill="#000" stroke="#000" points="563.227 -140.991 566.726 -150.991 570.227 -140.991 563.227 -140.991"/></g><g id="node7" class="node"><title>ReactiveFormsModule</title><polygon fill="#8dd3c7" stroke="#000" points="492.305 -122 489.305 -126 468.305 -126 465.305 -122 347.695 -122 347.695 -86 492.305 -86 492.305 -122"/><text x="420" y="-99.8" fill="#000" font-family="Times,serif" font-size="14" text-anchor="middle">ReactiveFormsModule</text></g><g id="edge6" class="edge"><title>ReactiveFormsModule-&gt;SharedModule</title><path fill="none" stroke="#000" d="M455.3691,-122.2396C455.3691,-137.5706 455.3691,-157 455.3691,-157 455.3691,-157 517.528,-157 517.528,-157"/><polygon fill="#000" stroke="#000" points="517.528 -160.5 527.528 -157 517.528 -153.5 517.528 -160.5"/></g><g id="node8" class="node"><title>CommonModule</title><polygon fill="#8dd3c7" stroke="#000" points="329.668 -122 326.668 -126 305.668 -126 302.668 -122 218.332 -122 218.332 -86 329.668 -86 329.668 -122"/><text x="274" y="-99.8" fill="#000" font-family="Times,serif" font-size="14" text-anchor="middle">CommonModule</text></g><g id="edge7" class="edge"><title>CommonModule-&gt;SharedModule</title><path fill="none" stroke="#000" d="M291.4658,-122.0336C291.4658,-139.0597 291.4658,-162 291.4658,-162 291.4658,-162 517.5897,-162 517.5897,-162"/><polygon fill="#000" stroke="#000" points="517.59 -165.5 527.59 -162 517.59 -158.5 517.59 -165.5"/></g><g id="node9" class="node"><title>DropdownModule.forRoot()</title><polygon fill="#8dd3c7" stroke="#000" points="199.793 -122 196.793 -126 175.793 -126 172.793 -122 24.207 -122 24.207 -86 199.793 -86 199.793 -122"/><text x="112" y="-99.8" fill="#000" font-family="Times,serif" font-size="14" text-anchor="middle">DropdownModule.forRoot()</text></g><g id="edge8" class="edge"><title>DropdownModule.forRoot()-&gt;SharedModule</title><path fill="none" stroke="#000" d="M181.1599,-122.2222C181.1599,-140.8285 181.1599,-167 181.1599,-167 181.1599,-167 517.6669,-167 517.6669,-167"/><polygon fill="#000" stroke="#000" points="517.667 -170.5 527.667 -167 517.667 -163.5 517.667 -170.5"/></g></g></svg>