<svg xmlns="http://www.w3.org/2000/svg" xmlns:xlink="http://www.w3.org/1999/xlink" width="1796pt" height="211pt" viewBox="0 0 1796 211"><g id="graph0" class="graph" transform="scale(1 1) rotate(0) translate(4 207)"><title>dependencies</title><polygon fill="#fff" stroke="transparent" points="-4 4 -4 -207 1792 -207 1792 4 -4 4"/><text x="873.009" y="-42.4" fill="#000" font-family="sans-serif" font-size="14" font-weight="bold" text-anchor="start">Legend</text><polygon fill="#ffffb3" stroke="transparent" points="660 -10 660 -30 680 -30 680 -10 660 -10"/><text x="683.629" y="-15.4" fill="#000" font-family="sans-serif" font-size="14" text-anchor="start">Declarations</text><polygon fill="#8dd3c7" stroke="transparent" points="773 -10 773 -30 793 -30 793 -10 773 -10"/><text x="796.725" y="-15.4" fill="#000" font-family="sans-serif" font-size="14" text-anchor="start">Module</text><polygon fill="#80b1d3" stroke="transparent" points="859 -10 859 -30 879 -30 879 -10 859 -10"/><text x="882.781" y="-15.4" fill="#000" font-family="sans-serif" font-size="14" text-anchor="start">Bootstrap</text><polygon fill="#fdb462" stroke="transparent" points="956 -10 956 -30 976 -30 976 -10 956 -10"/><text x="979.673" y="-15.4" fill="#000" font-family="sans-serif" font-size="14" text-anchor="start">Providers</text><polygon fill="#fb8072" stroke="transparent" points="1052 -10 1052 -30 1072 -30 1072 -10 1052 -10"/><text x="1075.726" y="-15.4" fill="#000" font-family="sans-serif" font-size="14" text-anchor="start">Exports</text><g id="clust1" class="cluster"><title>cluster_PaymentModule</title><polygon fill="none" stroke="#000" stroke-dasharray="1 5" points="8 -70 8 -195 1780 -195 1780 -70 8 -70"/></g><g id="clust2" class="cluster"><title>cluster_PaymentModule_declarations</title><polygon fill="none" stroke="#000" points="715 -78 715 -130 1772 -130 1772 -78 715 -78"/></g><g id="clust9" class="cluster"><title>cluster_PaymentModule_imports</title><polygon fill="none" stroke="#000" points="188 -78 188 -130 707 -130 707 -78 188 -78"/></g><g id="clust12" class="cluster"><title>cluster_PaymentModule_providers</title><polygon fill="none" stroke="#000" points="16 -78 16 -130 180 -130 180 -78 16 -78"/></g><g id="node1" class="node"><title>PaymentComponent</title><polygon fill="#ffffb3" stroke="#000" points="1764.326 -122 1633.674 -122 1633.674 -86 1764.326 -86 1764.326 -122"/><text x="1699" y="-99.8" fill="#000" font-family="Times,serif" font-size="14" text-anchor="middle">PaymentComponent</text></g><g id="node7" class="node"><title>PaymentModule</title><polygon fill="#8dd3c7" stroke="#000" points="865.044 -187 862.044 -191 841.044 -191 838.044 -187 756.956 -187 756.956 -151 865.044 -151 865.044 -187"/><text x="811" y="-164.8" fill="#000" font-family="Times,serif" font-size="14" text-anchor="middle">PaymentModule</text></g><g id="edge1" class="edge"><title>PaymentComponent-&gt;PaymentModule</title><path fill="none" stroke="#000" d="M1699,-122.0908C1699,-145.1328 1699,-182 1699,-182 1699,-182 875.2116,-182 875.2116,-182"/><polygon fill="#000" stroke="#000" points="875.212 -178.5 865.212 -182 875.212 -185.5 875.212 -178.5"/></g><g id="node2" class="node"><title>PaymentModesListComponent</title><polygon fill="#ffffb3" stroke="#000" points="1616.208 -122 1425.792 -122 1425.792 -86 1616.208 -86 1616.208 -122"/><text x="1521" y="-99.8" fill="#000" font-family="Times,serif" font-size="14" text-anchor="middle">PaymentModesListComponent</text></g><g id="edge2" class="edge"><title>PaymentModesListComponent-&gt;PaymentModule</title><path fill="none" stroke="#000" d="M1521,-122.2843C1521,-143.3211 1521,-175 1521,-175 1521,-175 875.2405,-175 875.2405,-175"/><polygon fill="#000" stroke="#000" points="875.241 -171.5 865.24 -175 875.24 -178.5 875.241 -171.5"/></g><g id="node3" class="node"><title>PaymentModeComponent</title><polygon fill="#ffffb3" stroke="#000" points="1407.485 -122 1244.515 -122 1244.515 -86 1407.485 -86 1407.485 -122"/><text x="1326" y="-99.8" fill="#000" font-family="Times,serif" font-size="14" text-anchor="middle">PaymentModeComponent</text></g><g id="edge3" class="edge"><title>PaymentModeComponent-&gt;PaymentModule</title><path fill="none" stroke="#000" d="M1326,-122.1061C1326,-141.3391 1326,-169 1326,-169 1326,-169 875.1406,-169 875.1406,-169"/><polygon fill="#000" stroke="#000" points="875.141 -165.5 865.141 -169 875.141 -172.5 875.141 -165.5"/></g><g id="node4" class="node"><title>CreditCardComponent</title><polygon fill="#ffffb3" stroke="#000" points="1226.538 -122 1083.462 -122 1083.462 -86 1226.538 -86 1226.538 -122"/><text x="1155" y="-99.8" fill="#000" font-family="Times,serif" font-size="14" text-anchor="middle">CreditCardComponent</text></g><g id="edge4" class="edge"><title>CreditCardComponent-&gt;PaymentModule</title><path fill="none" stroke="#000" d="M1155,-122.0225C1155,-139.3734 1155,-163 1155,-163 1155,-163 875.1284,-163 875.1284,-163"/><polygon fill="#000" stroke="#000" points="875.129 -159.5 865.128 -163 875.128 -166.5 875.129 -159.5"/></g><g id="node5" class="node"><title>NetBankingComponent</title><polygon fill="#ffffb3" stroke="#000" points="1065.486 -122 916.514 -122 916.514 -86 1065.486 -86 1065.486 -122"/><text x="991" y="-99.8" fill="#000" font-family="Times,serif" font-size="14" text-anchor="middle">NetBankingComponent</text></g><g id="edge5" class="edge"><title>NetBankingComponent-&gt;PaymentModule</title><path fill="none" stroke="#000" d="M991,-122.2396C991,-137.5706 991,-157 991,-157 991,-157 875.4944,-157 875.4944,-157"/><polygon fill="#000" stroke="#000" points="875.494 -153.5 865.494 -157 875.494 -160.5 875.494 -153.5"/></g><g id="node6" class="node"><title>CashOnDeliveryComponent</title><polygon fill="#ffffb3" stroke="#000" points="898.913 -122 723.087 -122 723.087 -86 898.913 -86 898.913 -122"/><text x="811" y="-99.8" fill="#000" font-family="Times,serif" font-size="14" text-anchor="middle">CashOnDeliveryComponent</text></g><g id="edge6" class="edge"><title>CashOnDeliveryComponent-&gt;PaymentModule</title><path fill="none" stroke="#000" d="M811,-122.1061C811,-122.1061 811,-140.991 811,-140.991"/><polygon fill="#000" stroke="#000" points="807.5 -140.991 811 -150.991 814.5 -140.991 807.5 -140.991"/></g><g id="node8" class="node"><title>RouterModule</title><polygon fill="#8dd3c7" stroke="#000" points="698.653 -122 695.653 -126 674.653 -126 671.653 -122 601.347 -122 601.347 -86 698.653 -86 698.653 -122"/><text x="650" y="-99.8" fill="#000" font-family="Times,serif" font-size="14" text-anchor="middle">RouterModule</text></g><g id="edge7" class="edge"><title>RouterModule-&gt;PaymentModule</title><path fill="none" stroke="#000" d="M650,-122.2396C650,-137.5706 650,-157 650,-157 650,-157 746.9414,-157 746.9414,-157"/><polygon fill="#000" stroke="#000" points="746.942 -160.5 756.941 -157 746.941 -153.5 746.942 -160.5"/></g><g id="node9" class="node"><title>CommonModule</title><polygon fill="#8dd3c7" stroke="#000" points="582.668 -122 579.668 -126 558.668 -126 555.668 -122 471.332 -122 471.332 -86 582.668 -86 582.668 -122"/><text x="527" y="-99.8" fill="#000" font-family="Times,serif" font-size="14" text-anchor="middle">CommonModule</text></g><g id="edge8" class="edge"><title>CommonModule-&gt;PaymentModule</title><path fill="none" stroke="#000" d="M527,-122.0225C527,-139.3734 527,-163 527,-163 527,-163 746.9133,-163 746.9133,-163"/><polygon fill="#000" stroke="#000" points="746.913 -166.5 756.913 -163 746.913 -159.5 746.913 -166.5"/></g><g id="node10" class="node"><title>FormsModule</title><polygon fill="#8dd3c7" stroke="#000" points="453.829 -122 450.829 -126 429.829 -126 426.829 -122 358.171 -122 358.171 -86 453.829 -86 453.829 -122"/><text x="406" y="-99.8" fill="#000" font-family="Times,serif" font-size="14" text-anchor="middle">FormsModule</text></g><g id="edge9" class="edge"><title>FormsModule-&gt;PaymentModule</title><path fill="none" stroke="#000" d="M406,-122.1061C406,-141.3391 406,-169 406,-169 406,-169 746.8001,-169 746.8001,-169"/><polygon fill="#000" stroke="#000" points="746.8 -172.5 756.8 -169 746.8 -165.5 746.8 -172.5"/></g><g id="node11" class="node"><title>ReactiveFormsModule</title><polygon fill="#8dd3c7" stroke="#000" points="340.305 -122 337.305 -126 316.305 -126 313.305 -122 195.695 -122 195.695 -86 340.305 -86 340.305 -122"/><text x="268" y="-99.8" fill="#000" font-family="Times,serif" font-size="14" text-anchor="middle">ReactiveFormsModule</text></g><g id="edge10" class="edge"><title>ReactiveFormsModule-&gt;PaymentModule</title><path fill="none" stroke="#000" d="M268,-122.2843C268,-143.3211 268,-175 268,-175 268,-175 746.9499,-175 746.9499,-175"/><polygon fill="#000" stroke="#000" points="746.95 -178.5 756.95 -175 746.95 -171.5 746.95 -178.5"/></g><g id="node12" class="node"><title>PaymentService</title><ellipse cx="98" cy="-104" fill="#fdb462" stroke="#000" rx="73.573" ry="18"/><text x="98" y="-99.8" fill="#000" font-family="Times,serif" font-size="14" text-anchor="middle">PaymentService</text></g><g id="edge11" class="edge"><title>PaymentService-&gt;PaymentModule</title><path fill="none" stroke="#000" d="M98,-122.0908C98,-145.1328 98,-182 98,-182 98,-182 746.8239,-182 746.8239,-182"/><polygon fill="#000" stroke="#000" points="746.824 -185.5 756.824 -182 746.824 -178.5 746.824 -185.5"/></g></g></svg>