<svg xmlns="http://www.w3.org/2000/svg" xmlns:xlink="http://www.w3.org/1999/xlink" width="763pt" height="211pt" viewBox="0 0 763 211"><g id="graph0" class="graph" transform="scale(1 1) rotate(0) translate(4 207)"><title>dependencies</title><polygon fill="#fff" stroke="transparent" points="-4 4 -4 -207 759 -207 759 4 -4 4"/><text x="356.509" y="-42.4" fill="#000" font-family="sans-serif" font-size="14" font-weight="bold" text-anchor="start">Legend</text><polygon fill="#ffffb3" stroke="transparent" points="143.5 -10 143.5 -30 163.5 -30 163.5 -10 143.5 -10"/><text x="167.129" y="-15.4" fill="#000" font-family="sans-serif" font-size="14" text-anchor="start">Declarations</text><polygon fill="#8dd3c7" stroke="transparent" points="256.5 -10 256.5 -30 276.5 -30 276.5 -10 256.5 -10"/><text x="280.225" y="-15.4" fill="#000" font-family="sans-serif" font-size="14" text-anchor="start">Module</text><polygon fill="#80b1d3" stroke="transparent" points="342.5 -10 342.5 -30 362.5 -30 362.5 -10 342.5 -10"/><text x="366.281" y="-15.4" fill="#000" font-family="sans-serif" font-size="14" text-anchor="start">Bootstrap</text><polygon fill="#fdb462" stroke="transparent" points="439.5 -10 439.5 -30 459.5 -30 459.5 -10 439.5 -10"/><text x="463.173" y="-15.4" fill="#000" font-family="sans-serif" font-size="14" text-anchor="start">Providers</text><polygon fill="#fb8072" stroke="transparent" points="535.5 -10 535.5 -30 555.5 -30 555.5 -10 535.5 -10"/><text x="559.226" y="-15.4" fill="#000" font-family="sans-serif" font-size="14" text-anchor="start">Exports</text><g id="clust1" class="cluster"><title>cluster_AuthModule</title><polygon fill="none" stroke="#000" stroke-dasharray="1 5" points="8 -70 8 -195 747 -195 747 -70 8 -70"/></g><g id="clust2" class="cluster"><title>cluster_AuthModule_declarations</title><polygon fill="none" stroke="#000" points="467 -78 467 -130 739 -130 739 -78 467 -78"/></g><g id="clust5" class="cluster"><title>cluster_AuthModule_imports</title><polygon fill="none" stroke="#000" points="16 -78 16 -130 459 -130 459 -78 16 -78"/></g><g id="node1" class="node"><title>LoginComponent</title><polygon fill="#ffffb3" stroke="#000" points="731.276 -122 616.724 -122 616.724 -86 731.276 -86 731.276 -122"/><text x="674" y="-99.8" fill="#000" font-family="Times,serif" font-size="14" text-anchor="middle">LoginComponent</text></g><g id="node3" class="node"><title>AuthModule</title><polygon fill="#8dd3c7" stroke="#000" points="438.548 -187 435.548 -191 414.548 -191 411.548 -187 351.452 -187 351.452 -151 438.548 -151 438.548 -187"/><text x="395" y="-164.8" fill="#000" font-family="Times,serif" font-size="14" text-anchor="middle">AuthModule</text></g><g id="edge1" class="edge"><title>LoginComponent-&gt;AuthModule</title><path fill="none" stroke="#000" d="M674,-122.2843C674,-143.3211 674,-175 674,-175 674,-175 448.5938,-175 448.5938,-175"/><polygon fill="#000" stroke="#000" points="448.594 -171.5 438.594 -175 448.594 -178.5 448.594 -171.5"/></g><g id="node2" class="node"><title>SignUpComponent</title><polygon fill="#ffffb3" stroke="#000" points="599.112 -122 474.888 -122 474.888 -86 599.112 -86 599.112 -122"/><text x="537" y="-99.8" fill="#000" font-family="Times,serif" font-size="14" text-anchor="middle">SignUpComponent</text></g><g id="edge2" class="edge"><title>SignUpComponent-&gt;AuthModule</title><path fill="none" stroke="#000" d="M537,-122.0225C537,-139.3734 537,-163 537,-163 537,-163 448.7634,-163 448.7634,-163"/><polygon fill="#000" stroke="#000" points="448.763 -159.5 438.763 -163 448.763 -166.5 448.763 -159.5"/></g><g id="node4" class="node"><title>CommonModule</title><polygon fill="#8dd3c7" stroke="#000" points="450.668 -122 447.668 -126 426.668 -126 423.668 -122 339.332 -122 339.332 -86 450.668 -86 450.668 -122"/><text x="395" y="-99.8" fill="#000" font-family="Times,serif" font-size="14" text-anchor="middle">CommonModule</text></g><g id="edge3" class="edge"><title>CommonModule-&gt;AuthModule</title><path fill="none" stroke="#000" d="M395,-122.1061C395,-122.1061 395,-140.991 395,-140.991"/><polygon fill="#000" stroke="#000" points="391.5 -140.991 395 -150.991 398.5 -140.991 391.5 -140.991"/></g><g id="node5" class="node"><title>RouterModule.forChild(args)</title><polygon fill="#8dd3c7" stroke="#000" points="321.732 -122 318.732 -126 297.732 -126 294.732 -122 140.268 -122 140.268 -86 321.732 -86 321.732 -122"/><text x="231" y="-99.8" fill="#000" font-family="Times,serif" font-size="14" text-anchor="middle">RouterModule.forChild(args)</text></g><g id="edge4" class="edge"><title>RouterModule.forChild(args)-&gt;AuthModule</title><path fill="none" stroke="#000" d="M231,-122.0225C231,-139.3734 231,-163 231,-163 231,-163 341.051,-163 341.051,-163"/><polygon fill="#000" stroke="#000" points="341.051 -166.5 351.051 -163 341.051 -159.5 341.051 -166.5"/></g><g id="node6" class="node"><title>SharedModule</title><polygon fill="#8dd3c7" stroke="#000" points="122.423 -122 119.423 -126 98.423 -126 95.423 -122 23.577 -122 23.577 -86 122.423 -86 122.423 -122"/><text x="73" y="-99.8" fill="#000" font-family="Times,serif" font-size="14" text-anchor="middle">SharedModule</text></g><g id="edge5" class="edge"><title>SharedModule-&gt;AuthModule</title><path fill="none" stroke="#000" d="M73,-122.2843C73,-143.3211 73,-175 73,-175 73,-175 341.2385,-175 341.2385,-175"/><polygon fill="#000" stroke="#000" points="341.239 -178.5 351.238 -175 341.238 -171.5 341.239 -178.5"/></g></g></svg>