<svg xmlns="http://www.w3.org/2000/svg" xmlns:xlink="http://www.w3.org/1999/xlink" width="3600" height="211pt" viewBox="0 0 2700 211"><g id="graph0" class="graph" transform="scale(1 1) rotate(0) translate(4 207)"><title>dependencies</title><polygon fill="#fff" stroke="transparent" points="-4 4 -4 -207 2696 -207 2696 4 -4 4"/><text x="1325.009" y="-42.4" fill="#000" font-family="sans-serif" font-size="14" font-weight="bold" text-anchor="start">Legend</text><polygon fill="#ffffb3" stroke="transparent" points="1112 -10 1112 -30 1132 -30 1132 -10 1112 -10"/><text x="1135.629" y="-15.4" fill="#000" font-family="sans-serif" font-size="14" text-anchor="start">Declarations</text><polygon fill="#8dd3c7" stroke="transparent" points="1225 -10 1225 -30 1245 -30 1245 -10 1225 -10"/><text x="1248.725" y="-15.4" fill="#000" font-family="sans-serif" font-size="14" text-anchor="start">Module</text><polygon fill="#80b1d3" stroke="transparent" points="1311 -10 1311 -30 1331 -30 1331 -10 1311 -10"/><text x="1334.781" y="-15.4" fill="#000" font-family="sans-serif" font-size="14" text-anchor="start">Bootstrap</text><polygon fill="#fdb462" stroke="transparent" points="1408 -10 1408 -30 1428 -30 1428 -10 1408 -10"/><text x="1431.673" y="-15.4" fill="#000" font-family="sans-serif" font-size="14" text-anchor="start">Providers</text><polygon fill="#fb8072" stroke="transparent" points="1504 -10 1504 -30 1524 -30 1524 -10 1504 -10"/><text x="1527.726" y="-15.4" fill="#000" font-family="sans-serif" font-size="14" text-anchor="start">Exports</text><g id="clust1" class="cluster"><title>cluster_CoreModule</title><polygon fill="none" stroke="#000" stroke-dasharray="1 5" points="8 -70 8 -195 2684 -195 2684 -70 8 -70"/></g><g id="clust3" class="cluster"><title>cluster_CoreModule_imports</title><polygon fill="none" stroke="#000" points="2506 -78 2506 -130 2676 -130 2676 -78 2506 -78"/></g><g id="clust6" class="cluster"><title>cluster_CoreModule_providers</title><polygon fill="none" stroke="#000" points="16 -78 16 -130 2498 -130 2498 -78 16 -78"/></g><g id="node1" class="node"><title>EffectsModule.run(args)</title><polygon fill="#8dd3c7" stroke="#000" points="2667.99 -122 2664.99 -126 2643.99 -126 2640.99 -122 2514.01 -122 2514.01 -86 2667.99 -86 2667.99 -122"/><text x="2591" y="-99.8" fill="#000" font-family="Times,serif" font-size="14" text-anchor="middle">EffectsModule.run(args)</text></g><g id="node2" class="node"><title>CoreModule</title><polygon fill="#8dd3c7" stroke="#000" points="1602.262 -187 1599.262 -191 1578.262 -191 1575.262 -187 1515.738 -187 1515.738 -151 1602.262 -151 1602.262 -187"/><text x="1559" y="-164.8" fill="#000" font-family="Times,serif" font-size="14" text-anchor="middle">CoreModule</text></g><g id="edge1" class="edge"><title>EffectsModule.run(args)-&gt;CoreModule</title><path fill="none" stroke="#000" d="M2606.399,-122.2921C2606.399,-144.2057 2606.399,-178 2606.399,-178 2606.399,-178 1612.3414,-178 1612.3414,-178"/><polygon fill="#000" stroke="#000" points="1612.341 -174.5 1602.341 -178 1612.341 -181.5 1612.341 -174.5"/></g><g id="edge2" class="edge"><title>EffectsModule.run(args)-&gt;CoreModule</title><path fill="none" stroke="#000" d="M2575.601,-122.0267C2575.601,-142.7672 2575.601,-174 2575.601,-174 2575.601,-174 1612.3569,-174 1612.3569,-174"/><polygon fill="#000" stroke="#000" points="1612.357 -170.5 1602.357 -174 1612.357 -177.5 1612.357 -170.5"/></g><g id="edge3" class="edge"><title>EffectsModule.run(args)-&gt;CoreModule</title><path fill="none" stroke="#000" d="M2637.1969,-122.3228C2637.1969,-145.6602 2637.1969,-183 2637.1969,-183 2637.1969,-183 1612.2664,-183 1612.2664,-183"/><polygon fill="#000" stroke="#000" points="1612.266 -179.5 1602.266 -183 1612.266 -186.5 1612.266 -179.5"/></g><g id="edge4" class="edge"><title>EffectsModule.run(args)-&gt;CoreModule</title><path fill="none" stroke="#000" d="M2544.8031,-122.1061C2544.8031,-141.3391 2544.8031,-169 2544.8031,-169 2544.8031,-169 1612.3111,-169 1612.3111,-169"/><polygon fill="#000" stroke="#000" points="1612.311 -165.5 1602.311 -169 1612.311 -172.5 1612.311 -165.5"/></g><g id="node3" class="node"><title>VariantParserService</title><ellipse cx="2397" cy="-104" fill="#fdb462" stroke="#000" rx="93.148" ry="18"/><text x="2397" y="-99.8" fill="#000" font-family="Times,serif" font-size="14" text-anchor="middle">VariantParserService</text></g><g id="edge5" class="edge"><title>VariantParserService-&gt;CoreModule</title><path fill="none" stroke="#000" d="M2397,-122.302C2397,-140.2699 2397,-165 2397,-165 2397,-165 1612.2899,-165 1612.2899,-165"/><polygon fill="#000" stroke="#000" points="1612.29 -161.5 1602.29 -165 1612.29 -168.5 1612.29 -161.5"/></g><g id="node4" class="node"><title>VariantRetriverService</title><ellipse cx="2185" cy="-104" fill="#fdb462" stroke="#000" rx="100.673" ry="18"/><text x="2185" y="-99.8" fill="#000" font-family="Times,serif" font-size="14" text-anchor="middle">VariantRetriverService</text></g><g id="edge6" class="edge"><title>VariantRetriverService-&gt;CoreModule</title><path fill="none" stroke="#000" d="M2185,-122.027C2185,-138.3976 2185,-160 2185,-160 2185,-160 1612.5221,-160 1612.5221,-160"/><polygon fill="#000" stroke="#000" points="1612.522 -156.5 1602.522 -160 1612.522 -163.5 1612.522 -156.5"/></g><g id="node5" class="node"><title>AuthService</title><ellipse cx="2007" cy="-104" fill="#fdb462" stroke="#000" rx="59.108" ry="18"/><text x="2007" y="-99.8" fill="#000" font-family="Times,serif" font-size="14" text-anchor="middle">AuthService</text></g><g id="edge7" class="edge"><title>AuthService-&gt;CoreModule</title><path fill="none" stroke="#000" d="M2007,-122.1871C2007,-137.1824 2007,-156 2007,-156 2007,-156 1612.3632,-156 1612.3632,-156"/><polygon fill="#000" stroke="#000" points="1612.363 -152.5 1602.363 -156 1612.363 -159.5 1612.363 -152.5"/></g><g id="node6" class="node"><title>{ provide: HttpService, useFactory: httpInterceptor, deps: [XHRBackend, RequestOptions] }</title><ellipse cx="1559" cy="-104" fill="#fdb462" stroke="#000" rx="370.042" ry="18"/><text x="1559" y="-99.8" fill="#000" font-family="Times,serif" font-size="14" text-anchor="middle">{ provide: HttpService, useFactory: httpInterceptor, deps: [XHRBackend, RequestOptions] }</text></g><g id="edge8" class="edge"><title>{ provide: HttpService, useFactory: httpInterceptor, deps: [XHRBackend, RequestOptions] }-&gt;CoreModule</title><path fill="none" stroke="#000" d="M1559,-122.1061C1559,-122.1061 1559,-140.991 1559,-140.991"/><polygon fill="#000" stroke="#000" points="1555.5 -140.991 1559 -150.991 1562.5 -140.991 1555.5 -140.991"/></g><g id="node7" class="node"><title>CheckoutService</title><ellipse cx="1094" cy="-104" fill="#fdb462" stroke="#000" rx="77.006" ry="18"/><text x="1094" y="-99.8" fill="#000" font-family="Times,serif" font-size="14" text-anchor="middle">CheckoutService</text></g><g id="edge9" class="edge"><title>CheckoutService-&gt;CoreModule</title><path fill="none" stroke="#000" d="M1094,-122.1871C1094,-137.1824 1094,-156 1094,-156 1094,-156 1505.6715,-156 1505.6715,-156"/><polygon fill="#000" stroke="#000" points="1505.671 -159.5 1515.671 -156 1505.671 -152.5 1505.671 -159.5"/></g><g id="node8" class="node"><title>ProductService</title><ellipse cx="929" cy="-104" fill="#fdb462" stroke="#000" rx="70.062" ry="18"/><text x="929" y="-99.8" fill="#000" font-family="Times,serif" font-size="14" text-anchor="middle">ProductService</text></g><g id="edge10" class="edge"><title>ProductService-&gt;CoreModule</title><path fill="none" stroke="#000" d="M929,-122.027C929,-138.3976 929,-160 929,-160 929,-160 1505.6975,-160 1505.6975,-160"/><polygon fill="#000" stroke="#000" points="1505.698 -163.5 1515.697 -160 1505.697 -156.5 1505.698 -163.5"/></g><g id="node9" class="node"><title>AuthActions</title><ellipse cx="781" cy="-104" fill="#fdb462" stroke="#000" rx="60.273" ry="18"/><text x="781" y="-99.8" fill="#000" font-family="Times,serif" font-size="14" text-anchor="middle">AuthActions</text></g><g id="edge11" class="edge"><title>AuthActions-&gt;CoreModule</title><path fill="none" stroke="#000" d="M781,-122.302C781,-140.2699 781,-165 781,-165 781,-165 1505.5043,-165 1505.5043,-165"/><polygon fill="#000" stroke="#000" points="1505.504 -168.5 1515.504 -165 1505.504 -161.5 1505.504 -168.5"/></g><g id="node10" class="node"><title>CheckoutActions</title><ellipse cx="625" cy="-104" fill="#fdb462" stroke="#000" rx="78.171" ry="18"/><text x="625" y="-99.8" fill="#000" font-family="Times,serif" font-size="14" text-anchor="middle">CheckoutActions</text></g><g id="edge12" class="edge"><title>CheckoutActions-&gt;CoreModule</title><path fill="none" stroke="#000" d="M625,-122.1061C625,-141.3391 625,-169 625,-169 625,-169 1505.5147,-169 1505.5147,-169"/><polygon fill="#000" stroke="#000" points="1505.515 -172.5 1515.515 -169 1505.515 -165.5 1505.515 -172.5"/></g><g id="node11" class="node"><title>UserActions</title><ellipse cx="470" cy="-104" fill="#fdb462" stroke="#000" rx="59.106" ry="18"/><text x="470" y="-99.8" fill="#000" font-family="Times,serif" font-size="14" text-anchor="middle">UserActions</text></g><g id="edge13" class="edge"><title>UserActions-&gt;CoreModule</title><path fill="none" stroke="#000" d="M470,-122.0267C470,-142.7672 470,-174 470,-174 470,-174 1505.6379,-174 1505.6379,-174"/><polygon fill="#000" stroke="#000" points="1505.638 -177.5 1515.638 -174 1505.638 -170.5 1505.638 -177.5"/></g><g id="node12" class="node"><title>UserService</title><ellipse cx="334" cy="-104" fill="#fdb462" stroke="#000" rx="58.441" ry="18"/><text x="334" y="-99.8" fill="#000" font-family="Times,serif" font-size="14" text-anchor="middle">UserService</text></g><g id="edge14" class="edge"><title>UserService-&gt;CoreModule</title><path fill="none" stroke="#000" d="M334,-122.2921C334,-144.2057 334,-178 334,-178 334,-178 1505.4016,-178 1505.4016,-178"/><polygon fill="#000" stroke="#000" points="1505.402 -181.5 1515.402 -178 1505.402 -174.5 1505.402 -181.5"/></g><g id="node13" class="node"><title>CanActivateViaAuthGuard</title><ellipse cx="141" cy="-104" fill="#fdb462" stroke="#000" rx="116.873" ry="18"/><text x="141" y="-99.8" fill="#000" font-family="Times,serif" font-size="14" text-anchor="middle">CanActivateViaAuthGuard</text></g><g id="edge15" class="edge"><title>CanActivateViaAuthGuard-&gt;CoreModule</title><path fill="none" stroke="#000" d="M141,-122.3228C141,-145.6602 141,-183 141,-183 141,-183 1505.3983,-183 1505.3983,-183"/><polygon fill="#000" stroke="#000" points="1505.398 -186.5 1515.398 -183 1505.398 -179.5 1505.398 -186.5"/></g></g></svg>