<svg xmlns="http://www.w3.org/2000/svg" xmlns:xlink="http://www.w3.org/1999/xlink" width="5100" height="502pt" viewBox="0 0 3825 502"><g id="graph0" class="graph" transform="scale(1 1) rotate(0) translate(4 498)"><title>dependencies</title><polygon fill="#fff" stroke="transparent" points="-4 4 -4 -498 3821 -498 3821 4 -4 4"/><text x="1887.509" y="-42.4" fill="#000" font-family="sans-serif" font-size="14" font-weight="bold" text-anchor="start">Legend</text><polygon fill="#ffffb3" stroke="transparent" points="1674.5 -10 1674.5 -30 1694.5 -30 1694.5 -10 1674.5 -10"/><text x="1698.129" y="-15.4" fill="#000" font-family="sans-serif" font-size="14" text-anchor="start">Declarations</text><polygon fill="#8dd3c7" stroke="transparent" points="1787.5 -10 1787.5 -30 1807.5 -30 1807.5 -10 1787.5 -10"/><text x="1811.225" y="-15.4" fill="#000" font-family="sans-serif" font-size="14" text-anchor="start">Module</text><polygon fill="#80b1d3" stroke="transparent" points="1873.5 -10 1873.5 -30 1893.5 -30 1893.5 -10 1873.5 -10"/><text x="1897.281" y="-15.4" fill="#000" font-family="sans-serif" font-size="14" text-anchor="start">Bootstrap</text><polygon fill="#fdb462" stroke="transparent" points="1970.5 -10 1970.5 -30 1990.5 -30 1990.5 -10 1970.5 -10"/><text x="1994.173" y="-15.4" fill="#000" font-family="sans-serif" font-size="14" text-anchor="start">Providers</text><polygon fill="#fb8072" stroke="transparent" points="2066.5 -10 2066.5 -30 2086.5 -30 2086.5 -10 2066.5 -10"/><text x="2090.226" y="-15.4" fill="#000" font-family="sans-serif" font-size="14" text-anchor="start">Exports</text><g id="clust1" class="cluster"><title>cluster_AddressModule</title><polygon fill="none" stroke="#000" stroke-dasharray="1 5" points="504 -70 504 -198 1040 -198 1040 -70 504 -70"/></g><g id="clust3" class="cluster"><title>cluster_AddressModule_imports</title><polygon fill="none" stroke="#000" points="512 -78 512 -130 1032 -130 1032 -78 512 -78"/></g><g id="clust7" class="cluster"><title>cluster_AppModule</title><polygon fill="none" stroke="#000" stroke-dasharray="1 5" points="1368 -206 1368 -486 2241 -486 2241 -206 1368 -206"/></g><g id="clust9" class="cluster"><title>cluster_AppModule_imports</title><polygon fill="none" stroke="#000" points="1376 -214 1376 -334 2233 -334 2233 -214 1376 -214"/></g><g id="clust11" class="cluster"><title>cluster_AppModule_bootstrap</title><polygon fill="none" stroke="#000" points="1672 -426 1672 -478 1796 -478 1796 -426 1672 -426"/></g><g id="clust13" class="cluster"><title>cluster_AuthModule</title><polygon fill="none" stroke="#000" stroke-dasharray="1 5" points="3595 -206 3595 -334 3809 -334 3809 -206 3595 -206"/></g><g id="clust15" class="cluster"><title>cluster_AuthModule_imports</title><polygon fill="none" stroke="#000" points="3603 -214 3603 -266 3801 -266 3801 -214 3603 -214"/></g><g id="clust19" class="cluster"><title>cluster_CartModule</title><polygon fill="none" stroke="#000" stroke-dasharray="1 5" points="396 -146 396 -198 496 -198 496 -146 396 -146"/></g><g id="clust25" class="cluster"><title>cluster_CheckoutModule</title><polygon fill="none" stroke="#000" stroke-dasharray="1 5" points="1048 -138 1048 -266 1360 -266 1360 -138 1048 -138"/></g><g id="clust27" class="cluster"><title>cluster_CheckoutModule_imports</title><polygon fill="none" stroke="#000" points="1056 -146 1056 -198 1352 -198 1352 -146 1056 -146"/></g><g id="clust43" class="cluster"><title>cluster_LayoutModule</title><polygon fill="none" stroke="#000" stroke-dasharray="1 5" points="1063 -350 1063 -418 1360 -418 1360 -350 1063 -350"/></g><g id="clust46" class="cluster"><title>cluster_LayoutModule_exports</title><polygon fill="none" stroke="#000" points="1071 -358 1071 -410 1352 -410 1352 -358 1071 -358"/></g><g id="clust55" class="cluster"><title>cluster_ProductModule</title><polygon fill="none" stroke="#000" stroke-dasharray="1 5" points="2389 -282 2389 -418 3587 -418 3587 -282 2389 -282"/></g><g id="clust58" class="cluster"><title>cluster_ProductModule_exports</title><polygon fill="none" stroke="#000" points="2397 -358 2397 -410 3579 -410 3579 -358 2397 -358"/></g><g id="clust61" class="cluster"><title>cluster_SharedModule</title><polygon fill="none" stroke="#000" stroke-dasharray="1 5" points="8 -274 8 -342 1360 -342 1360 -274 8 -274"/></g><g id="clust63" class="cluster"><title>cluster_SharedModule_imports</title><polygon fill="none" stroke="#000" points="1160 -282 1160 -334 1352 -334 1352 -282 1160 -282"/></g><g id="clust64" class="cluster"><title>cluster_SharedModule_exports</title><polygon fill="none" stroke="#000" points="16 -282 16 -334 1152 -334 1152 -282 16 -282"/></g><g id="clust67" class="cluster"><title>cluster_UserModule</title><polygon fill="none" stroke="#000" stroke-dasharray="1 5" points="2249 -282 2249 -334 2351 -334 2351 -282 2249 -282"/></g><g id="node1" class="node"><title>RouterModule</title><polygon fill="#8dd3c7" stroke="#000" points="617.653 -122 614.653 -126 593.653 -126 590.653 -122 520.347 -122 520.347 -86 617.653 -86 617.653 -122"/><text x="569" y="-99.8" fill="#000" font-family="Times,serif" font-size="14" text-anchor="middle">RouterModule</text></g><g id="node5" class="node"><title>AddressModule</title><polygon fill="#8dd3c7" stroke="#000" points="890.922 -190 887.922 -194 866.922 -194 863.922 -190 785.078 -190 785.078 -154 890.922 -154 890.922 -190"/><text x="838" y="-167.8" fill="#000" font-family="Times,serif" font-size="14" text-anchor="middle">AddressModule</text></g><g id="edge1" class="edge"><title>RouterModule-&gt;AddressModule</title><path fill="none" stroke="#000" d="M595.3797,-122.1061C595.3797,-141.3391 595.3797,-169 595.3797,-169 595.3797,-169 775.0557,-169 775.0557,-169"/><polygon fill="#000" stroke="#000" points="775.056 -172.5 785.056 -169 775.056 -165.5 775.056 -172.5"/></g><g id="node11" class="node"><title>LayoutModule</title><polygon fill="#8dd3c7" stroke="#000" points="1872.708 -326 1869.708 -330 1848.708 -330 1845.708 -326 1773.292 -326 1773.292 -290 1872.708 -290 1872.708 -326"/><text x="1823" y="-303.8" fill="#000" font-family="Times,serif" font-size="14" text-anchor="middle">LayoutModule</text></g><g id="edge33" class="edge"><title>RouterModule-&gt;LayoutModule</title><path fill="none" stroke="#000" d="M550.4868,-122.3153C550.4868,-168.856 550.4868,-288 550.4868,-288 550.4868,-288 1778.0335,-288 1778.0335,-288 1778.0335,-288 1778.0335,-288.1846 1778.0335,-288.1846"/><polygon fill="#000" stroke="#000" points="1774.534 -279.846 1778.034 -289.846 1781.534 -279.846 1774.534 -279.846"/></g><g id="node18" class="node"><title>CartModule</title><polygon fill="#8dd3c7" stroke="#000" points="487.653 -190 484.653 -194 463.653 -194 460.653 -190 404.347 -190 404.347 -154 487.653 -154 487.653 -190"/><text x="446" y="-167.8" fill="#000" font-family="Times,serif" font-size="14" text-anchor="middle">CartModule</text></g><g id="edge19" class="edge"><title>RouterModule-&gt;CartModule</title><path fill="none" stroke="#000" d="M524.1071,-122.1686C524.1071,-143.498 524.1071,-176 524.1071,-176 524.1071,-176 497.7975,-176 497.7975,-176"/><polygon fill="#000" stroke="#000" points="497.798 -172.5 487.798 -176 497.798 -179.5 497.798 -172.5"/></g><g id="node20" class="node"><title>PaymentModule</title><polygon fill="#8dd3c7" stroke="#000" points="1172.044 -190 1169.044 -194 1148.044 -194 1145.044 -190 1063.956 -190 1063.956 -154 1172.044 -154 1172.044 -190"/><text x="1118" y="-167.8" fill="#000" font-family="Times,serif" font-size="14" text-anchor="middle">PaymentModule</text></g><g id="edge36" class="edge"><title>RouterModule-&gt;PaymentModule</title><path fill="none" stroke="#000" d="M572.9332,-122.1274C572.9332,-132.7109 572.9332,-144 572.9332,-144 572.9332,-144 1099.9095,-144 1099.9095,-144 1099.9095,-144 1099.9095,-144.9793 1099.9095,-144.9793"/><polygon fill="#000" stroke="#000" points="1096.41 -143.793 1099.909 -153.793 1103.41 -143.793 1096.41 -143.793"/></g><g id="node2" class="node"><title>CommonModule</title><polygon fill="#8dd3c7" stroke="#000" points="747.668 -122 744.668 -126 723.668 -126 720.668 -122 636.332 -122 636.332 -86 747.668 -86 747.668 -122"/><text x="692" y="-99.8" fill="#000" font-family="Times,serif" font-size="14" text-anchor="middle">CommonModule</text></g><g id="edge2" class="edge"><title>CommonModule-&gt;AddressModule</title><path fill="none" stroke="#000" d="M745.6498,-122.0336C745.6498,-139.0597 745.6498,-162 745.6498,-162 745.6498,-162 775.0825,-162 775.0825,-162"/><polygon fill="#000" stroke="#000" points="775.082 -165.5 785.082 -162 775.082 -158.5 775.082 -165.5"/></g><g id="node13" class="node"><title>SharedModule</title><polygon fill="#8dd3c7" stroke="#000" points="1587.423 -258 1584.423 -262 1563.423 -262 1560.423 -258 1488.577 -258 1488.577 -222 1587.423 -222 1587.423 -258"/><text x="1538" y="-235.8" fill="#000" font-family="Times,serif" font-size="14" text-anchor="middle">SharedModule</text></g><g id="edge50" class="edge"><title>CommonModule-&gt;SharedModule</title><path fill="none" stroke="#000" d="M733.2575,-122.3207C733.2575,-153.1336 733.2575,-212 733.2575,-212 733.2575,-212 1513.3945,-212 1513.3945,-212 1513.3945,-212 1513.3945,-212.9793 1513.3945,-212.9793"/><polygon fill="#000" stroke="#000" points="1509.895 -211.793 1513.395 -221.793 1516.895 -211.793 1509.895 -211.793"/></g><g id="node17" class="node"><title>AuthModule</title><polygon fill="#8dd3c7" stroke="#000" points="3745.548 -326 3742.548 -330 3721.548 -330 3718.548 -326 3658.452 -326 3658.452 -290 3745.548 -290 3745.548 -326"/><text x="3702" y="-303.8" fill="#000" font-family="Times,serif" font-size="14" text-anchor="middle">AuthModule</text></g><g id="edge15" class="edge"><title>CommonModule-&gt;AuthModule</title><path fill="none" stroke="#000" d="M727.4171,-122.2393C727.4171,-164.0035 727.4171,-263 727.4171,-263 727.4171,-263 3687.4088,-263 3687.4088,-263 3687.4088,-263 3687.4088,-279.9561 3687.4088,-279.9561"/><polygon fill="#000" stroke="#000" points="3683.909 -279.956 3687.409 -289.956 3690.909 -279.956 3683.909 -279.956"/></g><g id="edge18" class="edge"><title>CommonModule-&gt;CartModule</title><path fill="none" stroke="#000" d="M642.2947,-122.3228C642.2947,-145.6602 642.2947,-183 642.2947,-183 642.2947,-183 498.1101,-183 498.1101,-183"/><polygon fill="#000" stroke="#000" points="498.11 -179.5 488.11 -183 498.11 -186.5 498.11 -179.5"/></g><g id="edge37" class="edge"><title>CommonModule-&gt;PaymentModule</title><path fill="none" stroke="#000" d="M743.4658,-122.2015C743.4658,-128.028 743.4658,-133 743.4658,-133 743.4658,-133 1136.0905,-133 1136.0905,-133 1136.0905,-133 1136.0905,-143.8701 1136.0905,-143.8701"/><polygon fill="#000" stroke="#000" points="1132.591 -143.87 1136.091 -153.87 1139.591 -143.87 1132.591 -143.87"/></g><g id="node21" class="node"><title>CheckoutModule</title><polygon fill="#8dd3c7" stroke="#000" points="1171.706 -258 1168.706 -262 1147.706 -262 1144.706 -258 1058.294 -258 1058.294 -222 1171.706 -222 1171.706 -258"/><text x="1115" y="-235.8" fill="#000" font-family="Times,serif" font-size="14" text-anchor="middle">CheckoutModule</text></g><g id="edge20" class="edge"><title>CommonModule-&gt;CheckoutModule</title><path fill="none" stroke="#000" d="M741.2818,-122.0597C741.2818,-159.0544 741.2818,-240 741.2818,-240 741.2818,-240 1048.2402,-240 1048.2402,-240"/><polygon fill="#000" stroke="#000" points="1048.24 -243.5 1058.24 -240 1048.24 -236.5 1048.24 -243.5"/></g><g id="node3" class="node"><title>FormsModule</title><polygon fill="#8dd3c7" stroke="#000" points="1023.829 -122 1020.829 -126 999.829 -126 996.829 -122 928.171 -122 928.171 -86 1023.829 -86 1023.829 -122"/><text x="976" y="-99.8" fill="#000" font-family="Times,serif" font-size="14" text-anchor="middle">FormsModule</text></g><g id="edge3" class="edge"><title>FormsModule-&gt;AddressModule</title><path fill="none" stroke="#000" d="M978.388,-122.2228C978.388,-142.3652 978.388,-172 978.388,-172 978.388,-172 901.0747,-172 901.0747,-172"/><polygon fill="#000" stroke="#000" points="901.075 -168.5 891.075 -172 901.075 -175.5 901.075 -168.5"/></g><g id="edge48" class="edge"><title>FormsModule-&gt;SharedModule</title><path fill="none" stroke="#000" d="M1024.0044,-98C1164.103,-98 1562.6056,-98 1562.6056,-98 1562.6056,-98 1562.6056,-211.7267 1562.6056,-211.7267"/><polygon fill="#000" stroke="#000" points="1559.106 -211.727 1562.606 -221.727 1566.106 -211.727 1559.106 -211.727"/></g><g id="node14" class="node"><title>AppModule</title><polygon fill="#8dd3c7" stroke="#000" points="1775.657 -402 1772.657 -406 1751.657 -406 1748.657 -402 1692.343 -402 1692.343 -366 1775.657 -366 1775.657 -402"/><text x="1734" y="-379.8" fill="#000" font-family="Times,serif" font-size="14" text-anchor="middle">AppModule</text></g><g id="edge8" class="edge"><title>FormsModule-&gt;AppModule</title><path fill="none" stroke="#000" d="M1023.8936,-110C1126.2769,-110 1357.2029,-110 1357.2029,-110 1357.2029,-110 1357.2029,-395 1357.2029,-395 1357.2029,-395 1682.2365,-395 1682.2365,-395"/><polygon fill="#000" stroke="#000" points="1682.236 -398.5 1692.236 -395 1682.236 -391.5 1682.236 -398.5"/></g><g id="edge38" class="edge"><title>FormsModule-&gt;PaymentModule</title><path fill="none" stroke="#000" d="M1012.4762,-122.0225C1012.4762,-139.3734 1012.4762,-163 1012.4762,-163 1012.4762,-163 1053.6925,-163 1053.6925,-163"/><polygon fill="#000" stroke="#000" points="1053.693 -166.5 1063.693 -163 1053.693 -159.5 1053.693 -166.5"/></g><g id="node4" class="node"><title>ReactiveFormsModule</title><polygon fill="#8dd3c7" stroke="#000" points="910.305 -122 907.305 -126 886.305 -126 883.305 -122 765.695 -122 765.695 -86 910.305 -86 910.305 -122"/><text x="838" y="-99.8" fill="#000" font-family="Times,serif" font-size="14" text-anchor="middle">ReactiveFormsModule</text></g><g id="edge4" class="edge"><title>ReactiveFormsModule-&gt;AddressModule</title><path fill="none" stroke="#000" d="M838,-122.2228C838,-122.2228 838,-143.7269 838,-143.7269"/><polygon fill="#000" stroke="#000" points="834.5 -143.727 838 -153.727 841.5 -143.727 834.5 -143.727"/></g><g id="edge49" class="edge"><title>ReactiveFormsModule-&gt;SharedModule</title><path fill="none" stroke="#000" d="M895.3356,-122.245C895.3356,-150.3435 895.3356,-201 895.3356,-201 895.3356,-201 1538,-201 1538,-201 1538,-201 1538,-211.8701 1538,-211.8701"/><polygon fill="#000" stroke="#000" points="1534.5 -211.87 1538 -221.87 1541.5 -211.87 1534.5 -211.87"/></g><g id="edge39" class="edge"><title>ReactiveFormsModule-&gt;PaymentModule</title><path fill="none" stroke="#000" d="M899.9607,-122.2479C899.9607,-145.0179 899.9607,-181 899.9607,-181 899.9607,-181 1053.8225,-181 1053.8225,-181"/><polygon fill="#000" stroke="#000" points="1053.822 -184.5 1063.822 -181 1053.822 -177.5 1053.822 -184.5"/></g><g id="edge24" class="edge"><title>AddressModule-&gt;CheckoutModule</title><path fill="none" stroke="#000" d="M853.0313,-190.0225C853.0313,-207.3734 853.0313,-231 853.0313,-231 853.0313,-231 1048.1567,-231 1048.1567,-231"/><polygon fill="#000" stroke="#000" points="1048.157 -234.5 1058.157 -231 1048.157 -227.5 1048.157 -234.5"/></g><g id="node6" class="node"><title>RouterModule.forRoot(args)</title><polygon fill="#8dd3c7" stroke="#000" points="1782.842 -258 1779.842 -262 1758.842 -262 1755.842 -258 1605.158 -258 1605.158 -222 1782.842 -222 1782.842 -258"/><text x="1694" y="-235.8" fill="#000" font-family="Times,serif" font-size="14" text-anchor="middle">RouterModule.forRoot(args)</text></g><g id="edge5" class="edge"><title>RouterModule.forRoot(args)-&gt;AppModule</title><path fill="none" stroke="#000" d="M1732.784,-258.2377C1732.784,-258.2377 1732.784,-355.9104 1732.784,-355.9104"/><polygon fill="#000" stroke="#000" points="1729.284 -355.91 1732.784 -365.91 1736.284 -355.91 1729.284 -355.91"/></g><g id="node7" class="node"><title>StoreModule.provideStore(args)</title><polygon fill="#8dd3c7" stroke="#000" points="1997.554 -258 1994.554 -262 1973.554 -262 1970.554 -258 1800.446 -258 1800.446 -222 1997.554 -222 1997.554 -258"/><text x="1899" y="-235.8" fill="#000" font-family="Times,serif" font-size="14" text-anchor="middle">StoreModule.provideStore(args)</text></g><g id="edge6" class="edge"><title>StoreModule.provideStore(args)-&gt;AppModule</title><path fill="none" stroke="#000" d="M1881.3615,-258.0411C1881.3615,-295.4476 1881.3615,-378 1881.3615,-378 1881.3615,-378 1785.8337,-378 1785.8337,-378"/><polygon fill="#000" stroke="#000" points="1785.834 -374.5 1775.834 -378 1785.834 -381.5 1785.834 -374.5"/></g><g id="node8" class="node"><title>BrowserModule</title><polygon fill="#8dd3c7" stroke="#000" points="2122.473 -258 2119.473 -262 2098.473 -262 2095.473 -258 2015.527 -258 2015.527 -222 2122.473 -222 2122.473 -258"/><text x="2069" y="-235.8" fill="#000" font-family="Times,serif" font-size="14" text-anchor="middle">BrowserModule</text></g><g id="edge7" class="edge"><title>BrowserModule-&gt;AppModule</title><path fill="none" stroke="#000" d="M2069,-258.0935C2069,-297.9889 2069,-390 2069,-390 2069,-390 1785.7506,-390 1785.7506,-390"/><polygon fill="#000" stroke="#000" points="1785.751 -386.5 1775.751 -390 1785.751 -393.5 1785.751 -386.5"/></g><g id="node9" class="node"><title>HttpModule</title><polygon fill="#8dd3c7" stroke="#000" points="2225.439 -258 2222.439 -262 2201.439 -262 2198.439 -258 2140.561 -258 2140.561 -222 2225.439 -222 2225.439 -258"/><text x="2183" y="-235.8" fill="#000" font-family="Times,serif" font-size="14" text-anchor="middle">HttpModule</text></g><g id="edge9" class="edge"><title>HttpModule-&gt;AppModule</title><path fill="none" stroke="#000" d="M2183,-258.2005C2183,-299.3516 2183,-396 2183,-396 2183,-396 1785.8376,-396 1785.8376,-396"/><polygon fill="#000" stroke="#000" points="1785.838 -392.5 1775.838 -396 1785.838 -399.5 1785.838 -392.5"/></g><g id="node10" class="node"><title>HomeModule</title><polygon fill="#8dd3c7" stroke="#000" points="1983.762 -326 1980.762 -330 1959.762 -330 1956.762 -326 1890.238 -326 1890.238 -290 1983.762 -290 1983.762 -326"/><text x="1937" y="-303.8" fill="#000" font-family="Times,serif" font-size="14" text-anchor="middle">HomeModule</text></g><g id="edge10" class="edge"><title>HomeModule-&gt;AppModule</title><path fill="none" stroke="#000" d="M1937,-326.0109C1937,-348.4852 1937,-384 1937,-384 1937,-384 1786.0617,-384 1786.0617,-384"/><polygon fill="#000" stroke="#000" points="1786.062 -380.5 1776.062 -384 1786.062 -387.5 1786.062 -380.5"/></g><g id="edge11" class="edge"><title>LayoutModule-&gt;AppModule</title><path fill="none" stroke="#000" d="M1784.2557,-326.1686C1784.2557,-345.0898 1784.2557,-372 1784.2557,-372 1784.2557,-372 1783.4259,-372 1783.4259,-372"/><polygon fill="#000" stroke="#000" points="1785.957 -368.5 1775.957 -372 1785.957 -375.5 1785.957 -368.5"/></g><g id="node22" class="node"><title>HeaderComponent</title><polygon fill="#fb8072" stroke="#000" points="1204.744 -402 1079.256 -402 1079.256 -366 1204.744 -366 1204.744 -402"/><text x="1142" y="-379.8" fill="#000" font-family="Times,serif" font-size="14" text-anchor="middle">HeaderComponent</text></g><g id="edge34" class="edge"><title>LayoutModule-&gt;HeaderComponent</title><path fill="none" stroke="#000" stroke-dasharray="5 2" d="M1780.042,-326.0439C1780.042,-338.5633 1780.042,-353 1780.042,-353 1780.042,-353 1186.3626,-353 1186.3626,-353 1186.3626,-353 1186.3626,-355.9672 1186.3626,-355.9672"/><polygon fill="#000" stroke="#000" points="1182.863 -355.967 1186.363 -365.967 1189.863 -355.967 1182.863 -355.967"/></g><g id="node23" class="node"><title>FooterComponent</title><polygon fill="#fb8072" stroke="#000" points="1343.881 -402 1222.119 -402 1222.119 -366 1343.881 -366 1343.881 -402"/><text x="1283" y="-379.8" fill="#000" font-family="Times,serif" font-size="14" text-anchor="middle">FooterComponent</text></g><g id="edge35" class="edge"><title>LayoutModule-&gt;FooterComponent</title><path fill="none" stroke="#000" stroke-dasharray="5 2" d="M1773.2704,-317C1655.7001,-317 1370.4111,-317 1370.4111,-317 1370.4111,-317 1370.4111,-374 1370.4111,-374 1370.4111,-374 1353.7099,-374 1353.7099,-374"/><polygon fill="#000" stroke="#000" points="1353.71 -370.5 1343.71 -374 1353.71 -377.5 1353.71 -370.5"/></g><g id="node12" class="node"><title>CoreModule</title><polygon fill="#8dd3c7" stroke="#000" points="1470.262 -258 1467.262 -262 1446.262 -262 1443.262 -258 1383.738 -258 1383.738 -222 1470.262 -222 1470.262 -258"/><text x="1427" y="-235.8" fill="#000" font-family="Times,serif" font-size="14" text-anchor="middle">CoreModule</text></g><g id="edge12" class="edge"><title>CoreModule-&gt;AppModule</title><path fill="none" stroke="#000" d="M1427,-258.1477C1427,-297.668 1427,-388 1427,-388 1427,-388 1682.2771,-388 1682.2771,-388"/><polygon fill="#000" stroke="#000" points="1682.277 -391.5 1692.277 -388 1682.277 -384.5 1682.277 -391.5"/></g><g id="edge31" class="edge"><title>SharedModule-&gt;HomeModule</title><path fill="none" stroke="#000" d="M1556.4542,-258.1804C1556.4542,-271.0382 1556.4542,-286 1556.4542,-286 1556.4542,-286 1937,-286 1937,-286 1937,-286 1937,-286.3832 1937,-286.3832"/><polygon fill="#000" stroke="#000" points="1933.5 -279.832 1937 -289.832 1940.5 -279.832 1933.5 -279.832"/></g><g id="edge32" class="edge"><title>SharedModule-&gt;LayoutModule</title><path fill="none" stroke="#000" d="M1581.0597,-258.0225C1581.0597,-275.3734 1581.0597,-299 1581.0597,-299 1581.0597,-299 1763.1632,-299 1763.1632,-299"/><polygon fill="#000" stroke="#000" points="1763.163 -302.5 1773.163 -299 1763.163 -295.5 1763.163 -302.5"/></g><g id="edge13" class="edge"><title>SharedModule-&gt;AppModule</title><path fill="none" stroke="#000" d="M1544.1514,-258.1446C1544.1514,-296.2265 1544.1514,-381 1544.1514,-381 1544.1514,-381 1682.3369,-381 1682.3369,-381"/><polygon fill="#000" stroke="#000" points="1682.337 -384.5 1692.337 -381 1682.337 -377.5 1682.337 -384.5"/></g><g id="edge17" class="edge"><title>SharedModule-&gt;AuthModule</title><path fill="none" stroke="#000" d="M1550.3028,-258.3415C1550.3028,-287.2107 1550.3028,-340 1550.3028,-340 1550.3028,-340 3702,-340 3702,-340 3702,-340 3702,-336.2434 3702,-336.2434"/><polygon fill="#000" stroke="#000" points="3705.5 -336.243 3702 -326.243 3698.5 -336.243 3705.5 -336.243"/></g><g id="node24" class="node"><title>ProductModule</title><polygon fill="#8dd3c7" stroke="#000" points="3023.598 -326 3020.598 -330 2999.598 -330 2996.598 -326 2920.402 -326 2920.402 -290 3023.598 -290 3023.598 -326"/><text x="2972" y="-303.8" fill="#000" font-family="Times,serif" font-size="14" text-anchor="middle">ProductModule</text></g><g id="edge40" class="edge"><title>SharedModule-&gt;ProductModule</title><path fill="none" stroke="#000" d="M1568.7569,-258.1592C1568.7569,-263.0433 1568.7569,-267 1568.7569,-267 1568.7569,-267 2972,-267 2972,-267 2972,-267 2972,-279.8975 2972,-279.8975"/><polygon fill="#000" stroke="#000" points="2968.5 -279.897 2972 -289.897 2975.5 -279.897 2968.5 -279.897"/></g><g id="node32" class="node"><title>LoadingIndicatorComponent</title><polygon fill="#fb8072" stroke="#000" points="510.022 -326 327.978 -326 327.978 -290 510.022 -290 510.022 -326"/><text x="419" y="-303.8" fill="#000" font-family="Times,serif" font-size="14" text-anchor="middle">LoadingIndicatorComponent</text></g><g id="edge52" class="edge"><title>SharedModule-&gt;LoadingIndicatorComponent</title><path fill="none" stroke="#000" stroke-dasharray="5 2" d="M1507.2431,-258.0328C1507.2431,-264.8526 1507.2431,-271 1507.2431,-271 1507.2431,-271 498.9185,-271 498.9185,-271 498.9185,-271 498.9185,-279.9336 498.9185,-279.9336"/><polygon fill="#000" stroke="#000" points="495.419 -279.933 498.918 -289.934 502.419 -279.934 495.419 -279.933"/></g><g id="node33" class="node"><title>NotificationComponent</title><polygon fill="#fb8072" stroke="#000" points="310.483 -326 157.517 -326 157.517 -290 310.483 -290 310.483 -326"/><text x="234" y="-303.8" fill="#000" font-family="Times,serif" font-size="14" text-anchor="middle">NotificationComponent</text></g><g id="edge53" class="edge"><title>SharedModule-&gt;NotificationComponent</title><path fill="none" stroke="#000" stroke-dasharray="5 2" d="M1501.0917,-258.2015C1501.0917,-264.028 1501.0917,-269 1501.0917,-269 1501.0917,-269 234,-269 234,-269 234,-269 234,-279.8701 234,-279.8701"/><polygon fill="#000" stroke="#000" points="230.5 -279.87 234 -289.87 237.5 -279.87 230.5 -279.87"/></g><g id="node34" class="node"><title>CommonModule</title><polygon fill="#fb8072" stroke="#000" points="139.668 -326 24.332 -326 24.332 -290 139.668 -290 139.668 -326"/><text x="82" y="-303.8" fill="#000" font-family="Times,serif" font-size="14" text-anchor="middle">CommonModule</text></g><g id="edge54" class="edge"><title>SharedModule-&gt;CommonModule</title><path fill="none" stroke="#000" stroke-dasharray="5 2" d="M1494.9403,-258.1686C1494.9403,-262.0459 1494.9403,-265 1494.9403,-265 1494.9403,-265 82,-265 82,-265 82,-265 82,-279.5146 82,-279.5146"/><polygon fill="#000" stroke="#000" points="78.5 -279.514 82 -289.515 85.5 -279.515 78.5 -279.514"/></g><g id="node35" class="node"><title>DropdownModule</title><polygon fill="#fb8072" stroke="#000" points="1144.424 -326 1021.576 -326 1021.576 -290 1144.424 -290 1144.424 -326"/><text x="1083" y="-303.8" fill="#000" font-family="Times,serif" font-size="14" text-anchor="middle">DropdownModule</text></g><g id="edge55" class="edge"><title>SharedModule-&gt;DropdownModule</title><path fill="none" stroke="#000" stroke-dasharray="5 2" d="M1538,-258.1505C1538,-270.2708 1538,-284 1538,-284 1538,-284 1101.4293,-284 1101.4293,-284 1101.4293,-284 1101.4293,-284.581 1101.4293,-284.581"/><polygon fill="#000" stroke="#000" points="1097.929 -279.81 1101.429 -289.81 1104.929 -279.81 1097.929 -279.81"/></g><g id="node36" class="node"><title>FormsModule</title><polygon fill="#fb8072" stroke="#000" points="1003.328 -326 904.672 -326 904.672 -290 1003.328 -290 1003.328 -326"/><text x="954" y="-303.8" fill="#000" font-family="Times,serif" font-size="14" text-anchor="middle">FormsModule</text></g><g id="edge56" class="edge"><title>SharedModule-&gt;FormsModule</title><path fill="none" stroke="#000" stroke-dasharray="5 2" d="M1531.8486,-258.0555C1531.8486,-269.439 1531.8486,-282 1531.8486,-282 1531.8486,-282 953.362,-282 953.362,-282 953.362,-282 953.362,-282.7942 953.362,-282.7942"/><polygon fill="#000" stroke="#000" points="949.862 -279.942 953.362 -289.942 956.862 -279.942 949.862 -279.942"/></g><g id="node37" class="node"><title>ReactiveFormsModule</title><polygon fill="#fb8072" stroke="#000" points="886.804 -326 739.196 -326 739.196 -290 886.804 -290 886.804 -326"/><text x="813" y="-303.8" fill="#000" font-family="Times,serif" font-size="14" text-anchor="middle">ReactiveFormsModule</text></g><g id="edge57" class="edge"><title>SharedModule-&gt;ReactiveFormsModule</title><path fill="none" stroke="#000" stroke-dasharray="5 2" d="M1525.6972,-258.1274C1525.6972,-268.7109 1525.6972,-280 1525.6972,-280 1525.6972,-280 819.1605,-280 819.1605,-280 819.1605,-280 819.1605,-280.9793 819.1605,-280.9793"/><polygon fill="#000" stroke="#000" points="815.661 -279.793 819.16 -289.793 822.661 -279.793 815.661 -279.793"/></g><g id="node38" class="node"><title>KeysPipe</title><polygon fill="#fb8072" stroke="#000" points="721.654 -326 648.346 -326 648.346 -290 721.654 -290 721.654 -326"/><text x="685" y="-303.8" fill="#000" font-family="Times,serif" font-size="14" text-anchor="middle">KeysPipe</text></g><g id="edge58" class="edge"><title>SharedModule-&gt;KeysPipe</title><path fill="none" stroke="#000" stroke-dasharray="5 2" d="M1519.5458,-258.4218C1519.5458,-267.2791 1519.5458,-276 1519.5458,-276 1519.5458,-276 685,-276 685,-276 685,-276 685,-279.7566 685,-279.7566"/><polygon fill="#000" stroke="#000" points="681.5 -279.757 685 -289.757 688.5 -279.757 681.5 -279.757"/></g><g id="node39" class="node"><title>HumanizePipe</title><polygon fill="#fb8072" stroke="#000" points="629.919 -326 528.081 -326 528.081 -290 629.919 -290 629.919 -326"/><text x="579" y="-303.8" fill="#000" font-family="Times,serif" font-size="14" text-anchor="middle">HumanizePipe</text></g><g id="edge59" class="edge"><title>SharedModule-&gt;HumanizePipe</title><path fill="none" stroke="#000" stroke-dasharray="5 2" d="M1513.3945,-258.0449C1513.3945,-265.749 1513.3945,-273 1513.3945,-273 1513.3945,-273 623.8929,-273 623.8929,-273 623.8929,-273 623.8929,-279.68 623.8929,-279.68"/><polygon fill="#000" stroke="#000" points="620.393 -279.68 623.893 -289.68 627.393 -279.68 620.393 -279.68"/></g><g id="node40" class="node"><title>UserModule</title><polygon fill="#8dd3c7" stroke="#000" points="2342.976 -326 2339.976 -330 2318.976 -330 2315.976 -326 2257.024 -326 2257.024 -290 2342.976 -290 2342.976 -326"/><text x="2300" y="-303.8" fill="#000" font-family="Times,serif" font-size="14" text-anchor="middle">UserModule</text></g><g id="edge61" class="edge"><title>SharedModule-&gt;UserModule</title><path fill="none" stroke="#000" d="M1562.6056,-258.1097C1562.6056,-267.897 1562.6056,-278 1562.6056,-278 1562.6056,-278 2285.6706,-278 2285.6706,-278 2285.6706,-278 2285.6706,-279.8568 2285.6706,-279.8568"/><polygon fill="#000" stroke="#000" points="2282.171 -279.857 2285.671 -289.857 2289.171 -279.857 2282.171 -279.857"/></g><g id="node15" class="node"><title>AppComponent</title><polygon fill="#80b1d3" stroke="#000" points="1788.439 -470 1679.561 -470 1679.561 -434 1788.439 -434 1788.439 -470"/><text x="1734" y="-447.8" fill="#000" font-family="Times,serif" font-size="14" text-anchor="middle">AppComponent</text></g><g id="edge14" class="edge"><title>AppModule-&gt;AppComponent</title><path fill="none" stroke="#000" stroke-dasharray="1 5" d="M1734,-402.2228C1734,-402.2228 1734,-423.7269 1734,-423.7269"/><polygon fill="#000" stroke="#000" points="1730.5 -423.727 1734 -433.727 1737.5 -423.727 1730.5 -423.727"/></g><g id="node16" class="node"><title>RouterModule.forChild(args)</title><polygon fill="#8dd3c7" stroke="#000" points="3792.732 -258 3789.732 -262 3768.732 -262 3765.732 -258 3611.268 -258 3611.268 -222 3792.732 -222 3792.732 -258"/><text x="3702" y="-235.8" fill="#000" font-family="Times,serif" font-size="14" text-anchor="middle">RouterModule.forChild(args)</text></g><g id="edge30" class="edge"><title>RouterModule.forChild(args)-&gt;HomeModule</title><path fill="none" stroke="#000" d="M3611.1671,-234C3292.0015,-234 2241.1154,-234 2241.1154,-234 2241.1154,-234 2241.1154,-308 2241.1154,-308 2241.1154,-308 1993.8515,-308 1993.8515,-308"/><polygon fill="#000" stroke="#000" points="1993.852 -304.5 1983.851 -308 1993.851 -311.5 1993.852 -304.5"/></g><g id="edge16" class="edge"><title>RouterModule.forChild(args)-&gt;AuthModule</title><path fill="none" stroke="#000" d="M3716.5912,-258.2228C3716.5912,-258.2228 3716.5912,-279.7269 3716.5912,-279.7269"/><polygon fill="#000" stroke="#000" points="3713.091 -279.727 3716.591 -289.727 3720.091 -279.727 3713.091 -279.727"/></g><g id="edge21" class="edge"><title>RouterModule.forChild(args)-&gt;CheckoutModule</title><path fill="none" stroke="#000" d="M3626.9981,-258.08C3626.9981,-259.8464 3626.9981,-261 3626.9981,-261 3626.9981,-261 1156.2826,-261 1156.2826,-261 1156.2826,-261 1156.2826,-260.708 1156.2826,-260.708"/><polygon fill="#000" stroke="#000" points="1159.783 -268.08 1156.283 -258.08 1152.783 -268.08 1159.783 -268.08"/></g><g id="edge41" class="edge"><title>RouterModule.forChild(args)-&gt;ProductModule</title><path fill="none" stroke="#000" d="M3642.6123,-258.0225C3642.6123,-275.3734 3642.6123,-299 3642.6123,-299 3642.6123,-299 3033.7857,-299 3033.7857,-299"/><polygon fill="#000" stroke="#000" points="3033.786 -295.5 3023.786 -299 3033.786 -302.5 3033.786 -295.5"/></g><g id="edge60" class="edge"><title>RouterModule.forChild(args)-&gt;UserModule</title><path fill="none" stroke="#000" d="M3611.2189,-246C3302.8034,-246 2314.3294,-246 2314.3294,-246 2314.3294,-246 2314.3294,-279.7333 2314.3294,-279.7333"/><polygon fill="#000" stroke="#000" points="2310.829 -279.733 2314.329 -289.733 2317.829 -279.733 2310.829 -279.733"/></g><g id="edge23" class="edge"><title>CartModule-&gt;CheckoutModule</title><path fill="none" stroke="#000" d="M446,-190.2479C446,-213.0179 446,-249 446,-249 446,-249 1048.25,-249 1048.25,-249"/><polygon fill="#000" stroke="#000" points="1048.25 -252.5 1058.25 -249 1048.25 -245.5 1048.25 -252.5"/></g><g id="node19" class="node"><title>EffectsModule.run(args)</title><polygon fill="#8dd3c7" stroke="#000" points="1343.99 -190 1340.99 -194 1319.99 -194 1316.99 -190 1190.01 -190 1190.01 -154 1343.99 -154 1343.99 -190"/><text x="1267" y="-167.8" fill="#000" font-family="Times,serif" font-size="14" text-anchor="middle">EffectsModule.run(args)</text></g><g id="edge26" class="edge"><title>EffectsModule.run(args)-&gt;CoreModule</title><path fill="none" stroke="#000" d="M1344.1555,-183C1373.9364,-183 1400.9715,-183 1400.9715,-183 1400.9715,-183 1400.9715,-211.9648 1400.9715,-211.9648"/><polygon fill="#000" stroke="#000" points="1397.472 -211.965 1400.972 -221.965 1404.472 -211.965 1397.472 -211.965"/></g><g id="edge27" class="edge"><title>EffectsModule.run(args)-&gt;CoreModule</title><path fill="none" stroke="#000" d="M1343.9919,-176C1381.3743,-176 1418.3238,-176 1418.3238,-176 1418.3238,-176 1418.3238,-211.8314 1418.3238,-211.8314"/><polygon fill="#000" stroke="#000" points="1414.824 -211.831 1418.324 -221.831 1421.824 -211.831 1414.824 -211.831"/></g><g id="edge28" class="edge"><title>EffectsModule.run(args)-&gt;CoreModule</title><path fill="none" stroke="#000" d="M1344.0077,-162C1395.1854,-162 1453.0285,-162 1453.0285,-162 1453.0285,-162 1453.0285,-211.9092 1453.0285,-211.9092"/><polygon fill="#000" stroke="#000" points="1449.529 -211.909 1453.028 -221.909 1456.529 -211.909 1449.529 -211.909"/></g><g id="edge29" class="edge"><title>EffectsModule.run(args)-&gt;CoreModule</title><path fill="none" stroke="#000" d="M1344.4266,-169C1388.7688,-169 1435.6762,-169 1435.6762,-169 1435.6762,-169 1435.6762,-211.7157 1435.6762,-211.7157"/><polygon fill="#000" stroke="#000" points="1432.176 -211.716 1435.676 -221.716 1439.176 -211.716 1432.176 -211.716"/></g><g id="edge22" class="edge"><title>EffectsModule.run(args)-&gt;CheckoutModule</title><path fill="none" stroke="#000" d="M1266.9509,-190.2228C1266.9509,-210.3652 1266.9509,-240 1266.9509,-240 1266.9509,-240 1182.0132,-240 1182.0132,-240"/><polygon fill="#000" stroke="#000" points="1182.013 -236.5 1172.013 -240 1182.013 -243.5 1182.013 -236.5"/></g><g id="edge25" class="edge"><title>PaymentModule-&gt;CheckoutModule</title><path fill="none" stroke="#000" d="M1117.6659,-190.2228C1117.6659,-190.2228 1117.6659,-211.7269 1117.6659,-211.7269"/><polygon fill="#000" stroke="#000" points="1114.166 -211.727 1117.666 -221.727 1121.166 -211.727 1114.166 -211.727"/></g><g id="node25" class="node"><title>ProductDetailPageComponent</title><polygon fill="#fb8072" stroke="#000" points="2966.8 -402 2777.2 -402 2777.2 -366 2966.8 -366 2966.8 -402"/><text x="2872" y="-379.8" fill="#000" font-family="Times,serif" font-size="14" text-anchor="middle">ProductDetailPageComponent</text></g><g id="edge42" class="edge"><title>ProductModule-&gt;ProductDetailPageComponent</title><path fill="none" stroke="#000" stroke-dasharray="5 2" d="M2943.6755,-326.0109C2943.6755,-326.0109 2943.6755,-355.855 2943.6755,-355.855"/><polygon fill="#000" stroke="#000" points="2940.176 -355.855 2943.675 -365.855 2947.176 -355.855 2940.176 -355.855"/></g><g id="node26" class="node"><title>ProductDetailsComponent</title><polygon fill="#fb8072" stroke="#000" points="2759.033 -402 2590.967 -402 2590.967 -366 2759.033 -366 2759.033 -402"/><text x="2675" y="-379.8" fill="#000" font-family="Times,serif" font-size="14" text-anchor="middle">ProductDetailsComponent</text></g><g id="edge43" class="edge"><title>ProductModule-&gt;ProductDetailsComponent</title><path fill="none" stroke="#000" stroke-dasharray="5 2" d="M2920.2665,-314C2835.1741,-314 2675,-314 2675,-314 2675,-314 2675,-355.9733 2675,-355.9733"/><polygon fill="#000" stroke="#000" points="2671.5 -355.973 2675 -365.973 2678.5 -355.973 2671.5 -355.973"/></g><g id="node27" class="node"><title>ProductImagesComponent</title><polygon fill="#fb8072" stroke="#000" points="2573.306 -402 2404.694 -402 2404.694 -366 2573.306 -366 2573.306 -402"/><text x="2489" y="-379.8" fill="#000" font-family="Times,serif" font-size="14" text-anchor="middle">ProductImagesComponent</text></g><g id="edge44" class="edge"><title>ProductModule-&gt;ProductImagesComponent</title><path fill="none" stroke="#000" stroke-dasharray="5 2" d="M2920.3105,-302C2795.7097,-302 2489,-302 2489,-302 2489,-302 2489,-355.8015 2489,-355.8015"/><polygon fill="#000" stroke="#000" points="2485.5 -355.801 2489 -365.801 2492.5 -355.802 2485.5 -355.801"/></g><g id="node28" class="node"><title>ProductPriceInfoComponent</title><polygon fill="#fb8072" stroke="#000" points="3571.466 -402 3390.534 -402 3390.534 -366 3571.466 -366 3571.466 -402"/><text x="3481" y="-379.8" fill="#000" font-family="Times,serif" font-size="14" text-anchor="middle">ProductPriceInfoComponent</text></g><g id="edge45" class="edge"><title>ProductModule-&gt;ProductPriceInfoComponent</title><path fill="none" stroke="#000" stroke-dasharray="5 2" d="M3023.6067,-308C3153.0093,-308 3481,-308 3481,-308 3481,-308 3481,-355.9891 3481,-355.9891"/><polygon fill="#000" stroke="#000" points="3477.5 -355.989 3481 -365.989 3484.5 -355.989 3477.5 -355.989"/></g><g id="node29" class="node"><title>ProductDescriptionComponent</title><polygon fill="#fb8072" stroke="#000" points="3372.694 -402 3179.306 -402 3179.306 -366 3372.694 -366 3372.694 -402"/><text x="3276" y="-379.8" fill="#000" font-family="Times,serif" font-size="14" text-anchor="middle">ProductDescriptionComponent</text></g><g id="edge46" class="edge"><title>ProductModule-&gt;ProductDescriptionComponent</title><path fill="none" stroke="#000" stroke-dasharray="5 2" d="M3023.5695,-317C3110.302,-317 3276,-317 3276,-317 3276,-317 3276,-355.692 3276,-355.692"/><polygon fill="#000" stroke="#000" points="3272.5 -355.692 3276 -365.692 3279.5 -355.692 3272.5 -355.692"/></g><g id="node30" class="node"><title>ProductVariantsComponent</title><polygon fill="#fb8072" stroke="#000" points="3160.803 -402 2985.197 -402 2985.197 -366 3160.803 -366 3160.803 -402"/><text x="3073" y="-379.8" fill="#000" font-family="Times,serif" font-size="14" text-anchor="middle">ProductVariantsComponent</text></g><g id="edge47" class="edge"><title>ProductModule-&gt;ProductVariantsComponent</title><path fill="none" stroke="#000" stroke-dasharray="5 2" d="M3004.3238,-326.0109C3004.3238,-326.0109 3004.3238,-355.855 3004.3238,-355.855"/><polygon fill="#000" stroke="#000" points="3000.824 -355.855 3004.324 -365.855 3007.824 -355.855 3000.824 -355.855"/></g><g id="node31" class="node"><title>DropdownModule.forRoot()</title><polygon fill="#8dd3c7" stroke="#000" points="1343.793 -326 1340.793 -330 1319.793 -330 1316.793 -326 1168.207 -326 1168.207 -290 1343.793 -290 1343.793 -326"/><text x="1256" y="-303.8" fill="#000" font-family="Times,serif" font-size="14" text-anchor="middle">DropdownModule.forRoot()</text></g><g id="edge51" class="edge"><title>DropdownModule.forRoot()-&gt;SharedModule</title><path fill="none" stroke="#000" d="M1343.9873,-308C1438.3823,-308 1574.9083,-308 1574.9083,-308 1574.9083,-308 1574.9083,-268.2228 1574.9083,-268.2228"/><polygon fill="#000" stroke="#000" points="1578.408 -268.223 1574.908 -258.223 1571.408 -268.223 1578.408 -268.223"/></g></g></svg>