<svg xmlns="http://www.w3.org/2000/svg" xmlns:xlink="http://www.w3.org/1999/xlink" width="1912" height="211pt" viewBox="0 0 1434 211"><g id="graph0" class="graph" transform="scale(1 1) rotate(0) translate(4 207)"><title>dependencies</title><polygon fill="#fff" stroke="transparent" points="-4 4 -4 -207 1430 -207 1430 4 -4 4"/><text x="692.009" y="-42.4" fill="#000" font-family="sans-serif" font-size="14" font-weight="bold" text-anchor="start">Legend</text><polygon fill="#ffffb3" stroke="transparent" points="479 -10 479 -30 499 -30 499 -10 479 -10"/><text x="502.629" y="-15.4" fill="#000" font-family="sans-serif" font-size="14" text-anchor="start">Declarations</text><polygon fill="#8dd3c7" stroke="transparent" points="592 -10 592 -30 612 -30 612 -10 592 -10"/><text x="615.725" y="-15.4" fill="#000" font-family="sans-serif" font-size="14" text-anchor="start">Module</text><polygon fill="#80b1d3" stroke="transparent" points="678 -10 678 -30 698 -30 698 -10 678 -10"/><text x="701.781" y="-15.4" fill="#000" font-family="sans-serif" font-size="14" text-anchor="start">Bootstrap</text><polygon fill="#fdb462" stroke="transparent" points="775 -10 775 -30 795 -30 795 -10 775 -10"/><text x="798.673" y="-15.4" fill="#000" font-family="sans-serif" font-size="14" text-anchor="start">Providers</text><polygon fill="#fb8072" stroke="transparent" points="871 -10 871 -30 891 -30 891 -10 871 -10"/><text x="894.726" y="-15.4" fill="#000" font-family="sans-serif" font-size="14" text-anchor="start">Exports</text><g id="clust1" class="cluster"><title>cluster_AddressModule</title><polygon fill="none" stroke="#000" stroke-dasharray="1 5" points="8 -70 8 -195 1418 -195 1418 -70 8 -70"/></g><g id="clust2" class="cluster"><title>cluster_AddressModule_declarations</title><polygon fill="none" stroke="#000" points="711 -78 711 -130 1410 -130 1410 -78 711 -78"/></g><g id="clust7" class="cluster"><title>cluster_AddressModule_imports</title><polygon fill="none" stroke="#000" points="184 -78 184 -130 703 -130 703 -78 184 -78"/></g><g id="clust10" class="cluster"><title>cluster_AddressModule_providers</title><polygon fill="none" stroke="#000" points="16 -78 16 -130 176 -130 176 -78 16 -78"/></g><g id="node1" class="node"><title>AddressComponent</title><polygon fill="#ffffb3" stroke="#000" points="1401.704 -122 1274.296 -122 1274.296 -86 1401.704 -86 1401.704 -122"/><text x="1338" y="-99.8" fill="#000" font-family="Times,serif" font-size="14" text-anchor="middle">AddressComponent</text></g><g id="node5" class="node"><title>AddressModule</title><polygon fill="#8dd3c7" stroke="#000" points="698.922 -187 695.922 -191 674.922 -191 671.922 -187 593.078 -187 593.078 -151 698.922 -151 698.922 -187"/><text x="646" y="-164.8" fill="#000" font-family="Times,serif" font-size="14" text-anchor="middle">AddressModule</text></g><g id="edge1" class="edge"><title>AddressComponent-&gt;AddressModule</title><path fill="none" stroke="#000" d="M1338,-122.0109C1338,-144.4852 1338,-180 1338,-180 1338,-180 708.8654,-180 708.8654,-180"/><polygon fill="#000" stroke="#000" points="708.865 -176.5 698.865 -180 708.865 -183.5 708.865 -176.5"/></g><g id="node2" class="node"><title>AddAddressComponent</title><polygon fill="#ffffb3" stroke="#000" points="1256.81 -122 1105.19 -122 1105.19 -86 1256.81 -86 1256.81 -122"/><text x="1181" y="-99.8" fill="#000" font-family="Times,serif" font-size="14" text-anchor="middle">AddAddressComponent</text></g><g id="edge2" class="edge"><title>AddAddressComponent-&gt;AddressModule</title><path fill="none" stroke="#000" d="M1181,-122.1289C1181,-142.5724 1181,-173 1181,-173 1181,-173 708.762,-173 708.762,-173"/><polygon fill="#000" stroke="#000" points="708.762 -169.5 698.762 -173 708.762 -176.5 708.762 -169.5"/></g><g id="node3" class="node"><title>DeliveryAddressComponent</title><polygon fill="#ffffb3" stroke="#000" points="1087.181 -122 910.819 -122 910.819 -86 1087.181 -86 1087.181 -122"/><text x="999" y="-99.8" fill="#000" font-family="Times,serif" font-size="14" text-anchor="middle">DeliveryAddressComponent</text></g><g id="edge3" class="edge"><title>DeliveryAddressComponent-&gt;AddressModule</title><path fill="none" stroke="#000" d="M999,-122.2667C999,-140.5552 999,-166 999,-166 999,-166 708.8477,-166 708.8477,-166"/><polygon fill="#000" stroke="#000" points="708.848 -162.5 698.848 -166 708.848 -169.5 708.848 -162.5"/></g><g id="node4" class="node"><title>DeliveryOptionsComponent</title><polygon fill="#ffffb3" stroke="#000" points="893.143 -122 718.857 -122 718.857 -86 893.143 -86 893.143 -122"/><text x="806" y="-99.8" fill="#000" font-family="Times,serif" font-size="14" text-anchor="middle">DeliveryOptionsComponent</text></g><g id="edge4" class="edge"><title>DeliveryOptionsComponent-&gt;AddressModule</title><path fill="none" stroke="#000" d="M806,-122.0091C806,-138.0494 806,-159 806,-159 806,-159 708.8334,-159 708.8334,-159"/><polygon fill="#000" stroke="#000" points="708.833 -155.5 698.833 -159 708.833 -162.5 708.833 -155.5"/></g><g id="node6" class="node"><title>RouterModule</title><polygon fill="#8dd3c7" stroke="#000" points="694.653 -122 691.653 -126 670.653 -126 667.653 -122 597.347 -122 597.347 -86 694.653 -86 694.653 -122"/><text x="646" y="-99.8" fill="#000" font-family="Times,serif" font-size="14" text-anchor="middle">RouterModule</text></g><g id="edge5" class="edge"><title>RouterModule-&gt;AddressModule</title><path fill="none" stroke="#000" d="M646,-122.1061C646,-122.1061 646,-140.991 646,-140.991"/><polygon fill="#000" stroke="#000" points="642.5 -140.991 646 -150.991 649.5 -140.991 642.5 -140.991"/></g><g id="node7" class="node"><title>CommonModule</title><polygon fill="#8dd3c7" stroke="#000" points="578.668 -122 575.668 -126 554.668 -126 551.668 -122 467.332 -122 467.332 -86 578.668 -86 578.668 -122"/><text x="523" y="-99.8" fill="#000" font-family="Times,serif" font-size="14" text-anchor="middle">CommonModule</text></g><g id="edge6" class="edge"><title>CommonModule-&gt;AddressModule</title><path fill="none" stroke="#000" d="M523,-122.0091C523,-138.0494 523,-159 523,-159 523,-159 583.1231,-159 583.1231,-159"/><polygon fill="#000" stroke="#000" points="583.123 -162.5 593.123 -159 583.123 -155.5 583.123 -162.5"/></g><g id="node8" class="node"><title>FormsModule</title><polygon fill="#8dd3c7" stroke="#000" points="449.829 -122 446.829 -126 425.829 -126 422.829 -122 354.171 -122 354.171 -86 449.829 -86 449.829 -122"/><text x="402" y="-99.8" fill="#000" font-family="Times,serif" font-size="14" text-anchor="middle">FormsModule</text></g><g id="edge7" class="edge"><title>FormsModule-&gt;AddressModule</title><path fill="none" stroke="#000" d="M402,-122.2667C402,-140.5552 402,-166 402,-166 402,-166 583.0556,-166 583.0556,-166"/><polygon fill="#000" stroke="#000" points="583.056 -169.5 593.056 -166 583.056 -162.5 583.056 -169.5"/></g><g id="node9" class="node"><title>ReactiveFormsModule</title><polygon fill="#8dd3c7" stroke="#000" points="336.305 -122 333.305 -126 312.305 -126 309.305 -122 191.695 -122 191.695 -86 336.305 -86 336.305 -122"/><text x="264" y="-99.8" fill="#000" font-family="Times,serif" font-size="14" text-anchor="middle">ReactiveFormsModule</text></g><g id="edge8" class="edge"><title>ReactiveFormsModule-&gt;AddressModule</title><path fill="none" stroke="#000" d="M264,-122.1289C264,-142.5724 264,-173 264,-173 264,-173 583.2856,-173 583.2856,-173"/><polygon fill="#000" stroke="#000" points="583.286 -176.5 593.286 -173 583.286 -169.5 583.286 -176.5"/></g><g id="node10" class="node"><title>AddressService</title><ellipse cx="96" cy="-104" fill="#fdb462" stroke="#000" rx="71.766" ry="18"/><text x="96" y="-99.8" fill="#000" font-family="Times,serif" font-size="14" text-anchor="middle">AddressService</text></g><g id="edge9" class="edge"><title>AddressService-&gt;AddressModule</title><path fill="none" stroke="#000" d="M96,-122.0109C96,-144.4852 96,-180 96,-180 96,-180 583.2637,-180 583.2637,-180"/><polygon fill="#000" stroke="#000" points="583.264 -183.5 593.264 -180 583.264 -176.5 583.264 -183.5"/></g></g></svg>