<svg xmlns="http://www.w3.org/2000/svg" xmlns:xlink="http://www.w3.org/1999/xlink" width="1000" height="284pt" viewBox="0 0 750 284"><g id="graph0" class="graph" transform="scale(1 1) rotate(0) translate(4 280)"><title>dependencies</title><polygon fill="#fff" stroke="transparent" points="-4 4 -4 -280 746 -280 746 4 -4 4"/><text x="350.009" y="-42.4" fill="#000" font-family="sans-serif" font-size="14" font-weight="bold" text-anchor="start">Legend</text><polygon fill="#ffffb3" stroke="transparent" points="137 -10 137 -30 157 -30 157 -10 137 -10"/><text x="160.629" y="-15.4" fill="#000" font-family="sans-serif" font-size="14" text-anchor="start">Declarations</text><polygon fill="#8dd3c7" stroke="transparent" points="250 -10 250 -30 270 -30 270 -10 250 -10"/><text x="273.725" y="-15.4" fill="#000" font-family="sans-serif" font-size="14" text-anchor="start">Module</text><polygon fill="#80b1d3" stroke="transparent" points="336 -10 336 -30 356 -30 356 -10 336 -10"/><text x="359.781" y="-15.4" fill="#000" font-family="sans-serif" font-size="14" text-anchor="start">Bootstrap</text><polygon fill="#fdb462" stroke="transparent" points="433 -10 433 -30 453 -30 453 -10 433 -10"/><text x="456.673" y="-15.4" fill="#000" font-family="sans-serif" font-size="14" text-anchor="start">Providers</text><polygon fill="#fb8072" stroke="transparent" points="529 -10 529 -30 549 -30 549 -10 529 -10"/><text x="552.726" y="-15.4" fill="#000" font-family="sans-serif" font-size="14" text-anchor="start">Exports</text><g id="clust1" class="cluster"><title>cluster_LayoutModule</title><polygon fill="none" stroke="#000" stroke-dasharray="1 5" points="8 -70 8 -268 734 -268 734 -70 8 -70"/></g><g id="clust2" class="cluster"><title>cluster_LayoutModule_declarations</title><polygon fill="none" stroke="#000" points="254 -78 254 -130 726 -130 726 -78 254 -78"/></g><g id="clust6" class="cluster"><title>cluster_LayoutModule_imports</title><polygon fill="none" stroke="#000" points="16 -78 16 -130 246 -130 246 -78 16 -78"/></g><g id="clust7" class="cluster"><title>cluster_LayoutModule_exports</title><polygon fill="none" stroke="#000" points="213 -208 213 -260 494 -260 494 -208 213 -208"/></g><g id="node1" class="node"><title>HeaderComponent</title><polygon fill="#ffffb3" stroke="#000" points="717.744 -122 596.256 -122 596.256 -86 717.744 -86 717.744 -122"/><text x="657" y="-99.8" fill="#000" font-family="Times,serif" font-size="14" text-anchor="middle">HeaderComponent</text></g><g id="node4" class="node"><title>LayoutModule</title><polygon fill="#8dd3c7" stroke="#000" points="401.708 -187 398.708 -191 377.708 -191 374.708 -187 302.292 -187 302.292 -151 401.708 -151 401.708 -187"/><text x="352" y="-164.8" fill="#000" font-family="Times,serif" font-size="14" text-anchor="middle">LayoutModule</text></g><g id="edge1" class="edge"><title>HeaderComponent-&gt;LayoutModule</title><path fill="none" stroke="#000" d="M657,-122.2843C657,-143.3211 657,-175 657,-175 657,-175 411.6823,-175 411.6823,-175"/><polygon fill="#000" stroke="#000" points="411.682 -171.5 401.682 -175 411.682 -178.5 411.682 -171.5"/></g><g id="node2" class="node"><title>FooterComponent</title><polygon fill="#ffffb3" stroke="#000" points="577.881 -122 460.119 -122 460.119 -86 577.881 -86 577.881 -122"/><text x="519" y="-99.8" fill="#000" font-family="Times,serif" font-size="14" text-anchor="middle">FooterComponent</text></g><g id="edge2" class="edge"><title>FooterComponent-&gt;LayoutModule</title><path fill="none" stroke="#000" d="M472.8407,-122.0225C472.8407,-139.3734 472.8407,-163 472.8407,-163 472.8407,-163 411.8482,-163 411.8482,-163"/><polygon fill="#000" stroke="#000" points="411.848 -159.5 401.848 -163 411.848 -166.5 411.848 -159.5"/></g><g id="node3" class="node"><title>ProfileDropdownComponent</title><polygon fill="#ffffb3" stroke="#000" points="441.806 -122 262.194 -122 262.194 -86 441.806 -86 441.806 -122"/><text x="352" y="-99.8" fill="#000" font-family="Times,serif" font-size="14" text-anchor="middle">ProfileDropdownComponent</text></g><g id="edge3" class="edge"><title>ProfileDropdownComponent-&gt;LayoutModule</title><path fill="none" stroke="#000" d="M352,-122.1061C352,-122.1061 352,-140.991 352,-140.991"/><polygon fill="#000" stroke="#000" points="348.5 -140.991 352 -150.991 355.5 -140.991 348.5 -140.991"/></g><g id="node7" class="node"><title>HeaderComponent</title><polygon fill="#fb8072" stroke="#000" points="485.744 -252 360.256 -252 360.256 -216 485.744 -216 485.744 -252"/><text x="423" y="-229.8" fill="#000" font-family="Times,serif" font-size="14" text-anchor="middle">HeaderComponent</text></g><g id="edge6" class="edge"><title>LayoutModule-&gt;HeaderComponent</title><path fill="none" stroke="#000" stroke-dasharray="5 2" d="M380.991,-187.1061C380.991,-187.1061 380.991,-205.991 380.991,-205.991"/><polygon fill="#000" stroke="#000" points="377.491 -205.991 380.991 -215.991 384.491 -205.991 377.491 -205.991"/></g><g id="node8" class="node"><title>FooterComponent</title><polygon fill="#fb8072" stroke="#000" points="342.881 -252 221.119 -252 221.119 -216 342.881 -216 342.881 -252"/><text x="282" y="-229.8" fill="#000" font-family="Times,serif" font-size="14" text-anchor="middle">FooterComponent</text></g><g id="edge7" class="edge"><title>LayoutModule-&gt;FooterComponent</title><path fill="none" stroke="#000" stroke-dasharray="5 2" d="M322.5433,-187.1061C322.5433,-187.1061 322.5433,-205.991 322.5433,-205.991"/><polygon fill="#000" stroke="#000" points="319.043 -205.991 322.543 -215.991 326.043 -205.991 319.043 -205.991"/></g><g id="node5" class="node"><title>SharedModule</title><polygon fill="#8dd3c7" stroke="#000" points="238.423 -122 235.423 -126 214.423 -126 211.423 -122 139.577 -122 139.577 -86 238.423 -86 238.423 -122"/><text x="189" y="-99.8" fill="#000" font-family="Times,serif" font-size="14" text-anchor="middle">SharedModule</text></g><g id="edge4" class="edge"><title>SharedModule-&gt;LayoutModule</title><path fill="none" stroke="#000" d="M229.7604,-122.0225C229.7604,-139.3734 229.7604,-163 229.7604,-163 229.7604,-163 292.2805,-163 292.2805,-163"/><polygon fill="#000" stroke="#000" points="292.281 -166.5 302.281 -163 292.28 -159.5 292.281 -166.5"/></g><g id="node6" class="node"><title>RouterModule</title><polygon fill="#8dd3c7" stroke="#000" points="121.653 -122 118.653 -126 97.653 -126 94.653 -122 24.347 -122 24.347 -86 121.653 -86 121.653 -122"/><text x="73" y="-99.8" fill="#000" font-family="Times,serif" font-size="14" text-anchor="middle">RouterModule</text></g><g id="edge5" class="edge"><title>RouterModule-&gt;LayoutModule</title><path fill="none" stroke="#000" d="M73,-122.2843C73,-143.3211 73,-175 73,-175 73,-175 292.1204,-175 292.1204,-175"/><polygon fill="#000" stroke="#000" points="292.12 -178.5 302.12 -175 292.12 -171.5 292.12 -178.5"/></g></g></svg>