<svg xmlns="http://www.w3.org/2000/svg" xmlns:xlink="http://www.w3.org/1999/xlink" width="1751pt" height="284pt" viewBox="0 0 1751 284"><g id="graph0" class="graph" transform="scale(1 1) rotate(0) translate(4 280)"><title>dependencies</title><polygon fill="#fff" stroke="transparent" points="-4 4 -4 -280 1747 -280 1747 4 -4 4"/><text x="850.509" y="-42.4" fill="#000" font-family="sans-serif" font-size="14" font-weight="bold" text-anchor="start">Legend</text><polygon fill="#ffffb3" stroke="transparent" points="637.5 -10 637.5 -30 657.5 -30 657.5 -10 637.5 -10"/><text x="661.129" y="-15.4" fill="#000" font-family="sans-serif" font-size="14" text-anchor="start">Declarations</text><polygon fill="#8dd3c7" stroke="transparent" points="750.5 -10 750.5 -30 770.5 -30 770.5 -10 750.5 -10"/><text x="774.225" y="-15.4" fill="#000" font-family="sans-serif" font-size="14" text-anchor="start">Module</text><polygon fill="#80b1d3" stroke="transparent" points="836.5 -10 836.5 -30 856.5 -30 856.5 -10 836.5 -10"/><text x="860.281" y="-15.4" fill="#000" font-family="sans-serif" font-size="14" text-anchor="start">Bootstrap</text><polygon fill="#fdb462" stroke="transparent" points="933.5 -10 933.5 -30 953.5 -30 953.5 -10 933.5 -10"/><text x="957.173" y="-15.4" fill="#000" font-family="sans-serif" font-size="14" text-anchor="start">Providers</text><polygon fill="#fb8072" stroke="transparent" points="1029.5 -10 1029.5 -30 1049.5 -30 1049.5 -10 1029.5 -10"/><text x="1053.226" y="-15.4" fill="#000" font-family="sans-serif" font-size="14" text-anchor="start">Exports</text><g id="clust1" class="cluster"><title>cluster_AppModule</title><polygon fill="none" stroke="#000" stroke-dasharray="1 5" points="8 -70 8 -268 1735 -268 1735 -70 8 -70"/></g><g id="clust2" class="cluster"><title>cluster_AppModule_declarations</title><polygon fill="none" stroke="#000" points="1223 -78 1223 -130 1727 -130 1727 -78 1223 -78"/></g><g id="clust6" class="cluster"><title>cluster_AppModule_imports</title><polygon fill="none" stroke="#000" points="16 -78 16 -130 1215 -130 1215 -78 16 -78"/></g><g id="clust8" class="cluster"><title>cluster_AppModule_bootstrap</title><polygon fill="none" stroke="#000" points="621 -208 621 -260 745 -260 745 -208 621 -208"/></g><g id="node1" class="node"><title>AppComponent</title><polygon fill="#ffffb3" stroke="#000" points="1718.94 -122 1613.06 -122 1613.06 -86 1718.94 -86 1718.94 -122"/><text x="1666" y="-99.8" fill="#000" font-family="Times,serif" font-size="14" text-anchor="middle">AppComponent</text></g><g id="node4" class="node"><title>AppModule</title><polygon fill="#8dd3c7" stroke="#000" points="724.657 -187 721.657 -191 700.657 -191 697.657 -187 641.343 -187 641.343 -151 724.657 -151 724.657 -187"/><text x="683" y="-164.8" fill="#000" font-family="Times,serif" font-size="14" text-anchor="middle">AppModule</text></g><g id="edge1" class="edge"><title>AppComponent-&gt;AppModule</title><path fill="none" stroke="#000" d="M1666,-122.2479C1666,-145.0179 1666,-181 1666,-181 1666,-181 734.9238,-181 734.9238,-181"/><polygon fill="#000" stroke="#000" points="734.924 -177.5 724.924 -181 734.924 -184.5 734.924 -177.5"/></g><g id="node2" class="node"><title>CheckoutHeaderComponent</title><polygon fill="#ffffb3" stroke="#000" points="1595.9 -122 1420.1 -122 1420.1 -86 1595.9 -86 1595.9 -122"/><text x="1508" y="-99.8" fill="#000" font-family="Times,serif" font-size="14" text-anchor="middle">CheckoutHeaderComponent</text></g><g id="edge2" class="edge"><title>CheckoutHeaderComponent-&gt;AppModule</title><path fill="none" stroke="#000" d="M1508,-122.2843C1508,-143.3211 1508,-175 1508,-175 1508,-175 734.7612,-175 734.7612,-175"/><polygon fill="#000" stroke="#000" points="734.761 -171.5 724.761 -175 734.761 -178.5 734.761 -171.5"/></g><g id="node3" class="node"><title>CheckoutFooterComponent</title><polygon fill="#ffffb3" stroke="#000" points="1402.538 -122 1231.462 -122 1231.462 -86 1402.538 -86 1402.538 -122"/><text x="1317" y="-99.8" fill="#000" font-family="Times,serif" font-size="14" text-anchor="middle">CheckoutFooterComponent</text></g><g id="edge3" class="edge"><title>CheckoutFooterComponent-&gt;AppModule</title><path fill="none" stroke="#000" d="M1317,-122.1061C1317,-141.3391 1317,-169 1317,-169 1317,-169 735.0895,-169 735.0895,-169"/><polygon fill="#000" stroke="#000" points="735.09 -165.5 725.09 -169 735.09 -172.5 735.09 -165.5"/></g><g id="node14" class="node"><title>AppComponent</title><polygon fill="#80b1d3" stroke="#000" points="737.439 -252 628.561 -252 628.561 -216 737.439 -216 737.439 -252"/><text x="683" y="-229.8" fill="#000" font-family="Times,serif" font-size="14" text-anchor="middle">AppComponent</text></g><g id="edge13" class="edge"><title>AppModule-&gt;AppComponent</title><path fill="none" stroke="#000" stroke-dasharray="1 5" d="M683,-187.1061C683,-187.1061 683,-205.991 683,-205.991"/><polygon fill="#000" stroke="#000" points="679.5 -205.991 683 -215.991 686.5 -205.991 679.5 -205.991"/></g><g id="node5" class="node"><title>RouterModule.forRoot(args)</title><polygon fill="#8dd3c7" stroke="#000" points="1206.842 -122 1203.842 -126 1182.842 -126 1179.842 -122 1029.158 -122 1029.158 -86 1206.842 -86 1206.842 -122"/><text x="1118" y="-99.8" fill="#000" font-family="Times,serif" font-size="14" text-anchor="middle">RouterModule.forRoot(args)</text></g><g id="edge4" class="edge"><title>RouterModule.forRoot(args)-&gt;AppModule</title><path fill="none" stroke="#000" d="M1118,-122.0225C1118,-139.3734 1118,-163 1118,-163 1118,-163 734.7096,-163 734.7096,-163"/><polygon fill="#000" stroke="#000" points="734.71 -159.5 724.71 -163 734.71 -166.5 734.71 -159.5"/></g><g id="node6" class="node"><title>StoreModule.provideStore(args)</title><polygon fill="#8dd3c7" stroke="#000" points="1011.554 -122 1008.554 -126 987.554 -126 984.554 -122 814.446 -122 814.446 -86 1011.554 -86 1011.554 -122"/><text x="913" y="-99.8" fill="#000" font-family="Times,serif" font-size="14" text-anchor="middle">StoreModule.provideStore(args)</text></g><g id="edge5" class="edge"><title>StoreModule.provideStore(args)-&gt;AppModule</title><path fill="none" stroke="#000" d="M913,-122.2396C913,-137.5706 913,-157 913,-157 913,-157 734.9181,-157 734.9181,-157"/><polygon fill="#000" stroke="#000" points="734.918 -153.5 724.918 -157 734.918 -160.5 734.918 -153.5"/></g><g id="node7" class="node"><title>BrowserModule</title><polygon fill="#8dd3c7" stroke="#000" points="796.473 -122 793.473 -126 772.473 -126 769.473 -122 689.527 -122 689.527 -86 796.473 -86 796.473 -122"/><text x="743" y="-99.8" fill="#000" font-family="Times,serif" font-size="14" text-anchor="middle">BrowserModule</text></g><g id="edge6" class="edge"><title>BrowserModule-&gt;AppModule</title><path fill="none" stroke="#000" d="M707.1708,-122.1061C707.1708,-122.1061 707.1708,-140.991 707.1708,-140.991"/><polygon fill="#000" stroke="#000" points="703.671 -140.991 707.171 -150.991 710.671 -140.991 703.671 -140.991"/></g><g id="node8" class="node"><title>FormsModule</title><polygon fill="#8dd3c7" stroke="#000" points="671.829 -122 668.829 -126 647.829 -126 644.829 -122 576.171 -122 576.171 -86 671.829 -86 671.829 -122"/><text x="624" y="-99.8" fill="#000" font-family="Times,serif" font-size="14" text-anchor="middle">FormsModule</text></g><g id="edge7" class="edge"><title>FormsModule-&gt;AppModule</title><path fill="none" stroke="#000" d="M656.418,-122.1061C656.418,-122.1061 656.418,-140.991 656.418,-140.991"/><polygon fill="#000" stroke="#000" points="652.918 -140.991 656.418 -150.991 659.918 -140.991 652.918 -140.991"/></g><g id="node9" class="node"><title>HttpModule</title><polygon fill="#8dd3c7" stroke="#000" points="558.439 -122 555.439 -126 534.439 -126 531.439 -122 473.561 -122 473.561 -86 558.439 -86 558.439 -122"/><text x="516" y="-99.8" fill="#000" font-family="Times,serif" font-size="14" text-anchor="middle">HttpModule</text></g><g id="edge8" class="edge"><title>HttpModule-&gt;AppModule</title><path fill="none" stroke="#000" d="M516,-122.2396C516,-137.5706 516,-157 516,-157 516,-157 631.2896,-157 631.2896,-157"/><polygon fill="#000" stroke="#000" points="631.29 -160.5 641.29 -157 631.29 -153.5 631.29 -160.5"/></g><g id="node10" class="node"><title>HomeModule</title><polygon fill="#8dd3c7" stroke="#000" points="455.762 -122 452.762 -126 431.762 -126 428.762 -122 362.238 -122 362.238 -86 455.762 -86 455.762 -122"/><text x="409" y="-99.8" fill="#000" font-family="Times,serif" font-size="14" text-anchor="middle">HomeModule</text></g><g id="edge9" class="edge"><title>HomeModule-&gt;AppModule</title><path fill="none" stroke="#000" d="M409,-122.0225C409,-139.3734 409,-163 409,-163 409,-163 631.087,-163 631.087,-163"/><polygon fill="#000" stroke="#000" points="631.087 -166.5 641.087 -163 631.087 -159.5 631.087 -166.5"/></g><g id="node11" class="node"><title>LayoutModule</title><polygon fill="#8dd3c7" stroke="#000" points="344.708 -122 341.708 -126 320.708 -126 317.708 -122 245.292 -122 245.292 -86 344.708 -86 344.708 -122"/><text x="295" y="-99.8" fill="#000" font-family="Times,serif" font-size="14" text-anchor="middle">LayoutModule</text></g><g id="edge10" class="edge"><title>LayoutModule-&gt;AppModule</title><path fill="none" stroke="#000" d="M295,-122.1061C295,-141.3391 295,-169 295,-169 295,-169 631.1086,-169 631.1086,-169"/><polygon fill="#000" stroke="#000" points="631.109 -172.5 641.109 -169 631.109 -165.5 631.109 -172.5"/></g><g id="node12" class="node"><title>CoreModule</title><polygon fill="#8dd3c7" stroke="#000" points="227.262 -122 224.262 -126 203.262 -126 200.262 -122 140.738 -122 140.738 -86 227.262 -86 227.262 -122"/><text x="184" y="-99.8" fill="#000" font-family="Times,serif" font-size="14" text-anchor="middle">CoreModule</text></g><g id="edge11" class="edge"><title>CoreModule-&gt;AppModule</title><path fill="none" stroke="#000" d="M184,-122.2843C184,-143.3211 184,-175 184,-175 184,-175 631.3138,-175 631.3138,-175"/><polygon fill="#000" stroke="#000" points="631.314 -178.5 641.314 -175 631.314 -171.5 631.314 -178.5"/></g><g id="node13" class="node"><title>SharedModule</title><polygon fill="#8dd3c7" stroke="#000" points="122.423 -122 119.423 -126 98.423 -126 95.423 -122 23.577 -122 23.577 -86 122.423 -86 122.423 -122"/><text x="73" y="-99.8" fill="#000" font-family="Times,serif" font-size="14" text-anchor="middle">SharedModule</text></g><g id="edge12" class="edge"><title>SharedModule-&gt;AppModule</title><path fill="none" stroke="#000" d="M73,-122.2479C73,-145.0179 73,-181 73,-181 73,-181 631.0722,-181 631.0722,-181"/><polygon fill="#000" stroke="#000" points="631.072 -184.5 641.072 -181 631.072 -177.5 631.072 -184.5"/></g></g></svg>