<svg xmlns="http://www.w3.org/2000/svg" xmlns:xlink="http://www.w3.org/1999/xlink" width="2365pt" height="211pt" viewBox="0 0 2365 211"><g id="graph0" class="graph" transform="scale(1 1) rotate(0) translate(4 207)"><title>dependencies</title><polygon fill="#fff" stroke="transparent" points="-4 4 -4 -207 2361 -207 2361 4 -4 4"/><text x="1157.509" y="-42.4" fill="#000" font-family="sans-serif" font-size="14" font-weight="bold" text-anchor="start">Legend</text><polygon fill="#ffffb3" stroke="transparent" points="944.5 -10 944.5 -30 964.5 -30 964.5 -10 944.5 -10"/><text x="968.129" y="-15.4" fill="#000" font-family="sans-serif" font-size="14" text-anchor="start">Declarations</text><polygon fill="#8dd3c7" stroke="transparent" points="1057.5 -10 1057.5 -30 1077.5 -30 1077.5 -10 1057.5 -10"/><text x="1081.225" y="-15.4" fill="#000" font-family="sans-serif" font-size="14" text-anchor="start">Module</text><polygon fill="#80b1d3" stroke="transparent" points="1143.5 -10 1143.5 -30 1163.5 -30 1163.5 -10 1143.5 -10"/><text x="1167.281" y="-15.4" fill="#000" font-family="sans-serif" font-size="14" text-anchor="start">Bootstrap</text><polygon fill="#fdb462" stroke="transparent" points="1240.5 -10 1240.5 -30 1260.5 -30 1260.5 -10 1240.5 -10"/><text x="1264.173" y="-15.4" fill="#000" font-family="sans-serif" font-size="14" text-anchor="start">Providers</text><polygon fill="#fb8072" stroke="transparent" points="1336.5 -10 1336.5 -30 1356.5 -30 1356.5 -10 1336.5 -10"/><text x="1360.226" y="-15.4" fill="#000" font-family="sans-serif" font-size="14" text-anchor="start">Exports</text><g id="clust1" class="cluster"><title>cluster_HomeModule</title><polygon fill="none" stroke="#000" stroke-dasharray="1 5" points="8 -70 8 -195 2349 -195 2349 -70 8 -70"/></g><g id="clust2" class="cluster"><title>cluster_HomeModule_declarations</title><polygon fill="none" stroke="#000" points="656 -78 656 -130 2341 -130 2341 -78 656 -78"/></g><g id="clust14" class="cluster"><title>cluster_HomeModule_imports</title><polygon fill="none" stroke="#000" points="334 -78 334 -130 648 -130 648 -78 334 -78"/></g><g id="clust17" class="cluster"><title>cluster_HomeModule_providers</title><polygon fill="none" stroke="#000" points="16 -78 16 -130 326 -130 326 -78 16 -78"/></g><g id="node1" class="node"><title>HomeComponent</title><polygon fill="#ffffb3" stroke="#000" points="2332.545 -122 2217.455 -122 2217.455 -86 2332.545 -86 2332.545 -122"/><text x="2275" y="-99.8" fill="#000" font-family="Times,serif" font-size="14" text-anchor="middle">HomeComponent</text></g><g id="node12" class="node"><title>HomeModule</title><polygon fill="#8dd3c7" stroke="#000" points="1198.762 -187 1195.762 -191 1174.762 -191 1171.762 -187 1105.238 -187 1105.238 -151 1198.762 -151 1198.762 -187"/><text x="1152" y="-164.8" fill="#000" font-family="Times,serif" font-size="14" text-anchor="middle">HomeModule</text></g><g id="edge1" class="edge"><title>HomeComponent-&gt;HomeModule</title><path fill="none" stroke="#000" d="M2275,-122.3228C2275,-145.6602 2275,-183 2275,-183 2275,-183 1208.8242,-183 1208.8242,-183"/><polygon fill="#000" stroke="#000" points="1208.824 -179.5 1198.824 -183 1208.824 -186.5 1208.824 -179.5"/></g><g id="node2" class="node"><title>ProductListComponent</title><polygon fill="#ffffb3" stroke="#000" points="2199.16 -122 2052.84 -122 2052.84 -86 2199.16 -86 2199.16 -122"/><text x="2126" y="-99.8" fill="#000" font-family="Times,serif" font-size="14" text-anchor="middle">ProductListComponent</text></g><g id="edge2" class="edge"><title>ProductListComponent-&gt;HomeModule</title><path fill="none" stroke="#000" d="M2126,-122.2921C2126,-144.2057 2126,-178 2126,-178 2126,-178 1208.978,-178 1208.978,-178"/><polygon fill="#000" stroke="#000" points="1208.978 -174.5 1198.978 -178 1208.978 -181.5 1208.978 -174.5"/></g><g id="node3" class="node"><title>ProductListItemComponent</title><polygon fill="#ffffb3" stroke="#000" points="2035.316 -122 1862.684 -122 1862.684 -86 2035.316 -86 2035.316 -122"/><text x="1949" y="-99.8" fill="#000" font-family="Times,serif" font-size="14" text-anchor="middle">ProductListItemComponent</text></g><g id="edge3" class="edge"><title>ProductListItemComponent-&gt;HomeModule</title><path fill="none" stroke="#000" d="M1949,-122.0267C1949,-142.7672 1949,-174 1949,-174 1949,-174 1208.8805,-174 1208.8805,-174"/><polygon fill="#000" stroke="#000" points="1208.88 -170.5 1198.88 -174 1208.88 -177.5 1208.88 -170.5"/></g><g id="node4" class="node"><title>TaxonsComponent</title><polygon fill="#ffffb3" stroke="#000" points="1845.045 -122 1722.955 -122 1722.955 -86 1845.045 -86 1845.045 -122"/><text x="1784" y="-99.8" fill="#000" font-family="Times,serif" font-size="14" text-anchor="middle">TaxonsComponent</text></g><g id="edge4" class="edge"><title>TaxonsComponent-&gt;HomeModule</title><path fill="none" stroke="#000" d="M1784,-122.1061C1784,-141.3391 1784,-169 1784,-169 1784,-169 1208.9864,-169 1208.9864,-169"/><polygon fill="#000" stroke="#000" points="1208.986 -165.5 1198.986 -169 1208.986 -172.5 1208.986 -165.5"/></g><g id="node5" class="node"><title>FilterComponent</title><polygon fill="#ffffb3" stroke="#000" points="1704.662 -122 1593.338 -122 1593.338 -86 1704.662 -86 1704.662 -122"/><text x="1649" y="-99.8" fill="#000" font-family="Times,serif" font-size="14" text-anchor="middle">FilterComponent</text></g><g id="edge5" class="edge"><title>FilterComponent-&gt;HomeModule</title><path fill="none" stroke="#000" d="M1649,-122.302C1649,-140.2699 1649,-165 1649,-165 1649,-165 1209.2046,-165 1209.2046,-165"/><polygon fill="#000" stroke="#000" points="1209.205 -161.5 1199.205 -165 1209.205 -168.5 1209.205 -161.5"/></g><g id="node6" class="node"><title>BreadcrumbComponent</title><polygon fill="#ffffb3" stroke="#000" points="1575.025 -122 1424.975 -122 1424.975 -86 1575.025 -86 1575.025 -122"/><text x="1500" y="-99.8" fill="#000" font-family="Times,serif" font-size="14" text-anchor="middle">BreadcrumbComponent</text></g><g id="edge6" class="edge"><title>BreadcrumbComponent-&gt;HomeModule</title><path fill="none" stroke="#000" d="M1500,-122.027C1500,-138.3976 1500,-160 1500,-160 1500,-160 1208.9328,-160 1208.9328,-160"/><polygon fill="#000" stroke="#000" points="1208.933 -156.5 1198.933 -160 1208.933 -163.5 1208.933 -156.5"/></g><g id="node7" class="node"><title>ContentHeaderComponent</title><polygon fill="#ffffb3" stroke="#000" points="1407.076 -122 1240.924 -122 1240.924 -86 1407.076 -86 1407.076 -122"/><text x="1324" y="-99.8" fill="#000" font-family="Times,serif" font-size="14" text-anchor="middle">ContentHeaderComponent</text></g><g id="edge7" class="edge"><title>ContentHeaderComponent-&gt;HomeModule</title><path fill="none" stroke="#000" d="M1324,-122.1871C1324,-137.1824 1324,-156 1324,-156 1324,-156 1208.9998,-156 1208.9998,-156"/><polygon fill="#000" stroke="#000" points="1209 -152.5 1199 -156 1209 -159.5 1209 -152.5"/></g><g id="node8" class="node"><title>CustomizeComponent</title><polygon fill="#ffffb3" stroke="#000" points="1222.715 -122 1081.285 -122 1081.285 -86 1222.715 -86 1222.715 -122"/><text x="1152" y="-99.8" fill="#000" font-family="Times,serif" font-size="14" text-anchor="middle">CustomizeComponent</text></g><g id="edge8" class="edge"><title>CustomizeComponent-&gt;HomeModule</title><path fill="none" stroke="#000" d="M1152,-122.1061C1152,-122.1061 1152,-140.991 1152,-140.991"/><polygon fill="#000" stroke="#000" points="1148.5 -140.991 1152 -150.991 1155.5 -140.991 1148.5 -140.991"/></g><g id="node9" class="node"><title>FilterSummaryComponent</title><polygon fill="#ffffb3" stroke="#000" points="1063.101 -122 896.899 -122 896.899 -86 1063.101 -86 1063.101 -122"/><text x="980" y="-99.8" fill="#000" font-family="Times,serif" font-size="14" text-anchor="middle">FilterSummaryComponent</text></g><g id="edge9" class="edge"><title>FilterSummaryComponent-&gt;HomeModule</title><path fill="none" stroke="#000" d="M980,-122.1871C980,-137.1824 980,-156 980,-156 980,-156 1095.0002,-156 1095.0002,-156"/><polygon fill="#000" stroke="#000" points="1095 -159.5 1105 -156 1095 -152.5 1095 -159.5"/></g><g id="node10" class="node"><title>ContentComponent</title><polygon fill="#ffffb3" stroke="#000" points="878.665 -122 753.335 -122 753.335 -86 878.665 -86 878.665 -122"/><text x="816" y="-99.8" fill="#000" font-family="Times,serif" font-size="14" text-anchor="middle">ContentComponent</text></g><g id="edge10" class="edge"><title>ContentComponent-&gt;HomeModule</title><path fill="none" stroke="#000" d="M816,-122.027C816,-138.3976 816,-160 816,-160 816,-160 1094.9269,-160 1094.9269,-160"/><polygon fill="#000" stroke="#000" points="1094.927 -163.5 1104.927 -160 1094.927 -156.5 1094.927 -163.5"/></g><g id="node11" class="node"><title>FilterPipe</title><polygon fill="#ffffb3" stroke="#000" points="735.718 -122 664.282 -122 664.282 -86 735.718 -86 735.718 -122"/><text x="700" y="-99.8" fill="#000" font-family="Times,serif" font-size="14" text-anchor="middle">FilterPipe</text></g><g id="edge11" class="edge"><title>FilterPipe-&gt;HomeModule</title><path fill="none" stroke="#000" d="M700,-122.302C700,-140.2699 700,-165 700,-165 700,-165 1094.9072,-165 1094.9072,-165"/><polygon fill="#000" stroke="#000" points="1094.907 -168.5 1104.907 -165 1094.907 -161.5 1094.907 -168.5"/></g><g id="node13" class="node"><title>RouterModule.forChild(args)</title><polygon fill="#8dd3c7" stroke="#000" points="639.732 -122 636.732 -126 615.732 -126 612.732 -122 458.268 -122 458.268 -86 639.732 -86 639.732 -122"/><text x="549" y="-99.8" fill="#000" font-family="Times,serif" font-size="14" text-anchor="middle">RouterModule.forChild(args)</text></g><g id="edge12" class="edge"><title>RouterModule.forChild(args)-&gt;HomeModule</title><path fill="none" stroke="#000" d="M549,-122.1061C549,-141.3391 549,-169 549,-169 549,-169 1095.1854,-169 1095.1854,-169"/><polygon fill="#000" stroke="#000" points="1095.185 -172.5 1105.185 -169 1095.185 -165.5 1095.185 -172.5"/></g><g id="node14" class="node"><title>SharedModule</title><polygon fill="#8dd3c7" stroke="#000" points="440.423 -122 437.423 -126 416.423 -126 413.423 -122 341.577 -122 341.577 -86 440.423 -86 440.423 -122"/><text x="391" y="-99.8" fill="#000" font-family="Times,serif" font-size="14" text-anchor="middle">SharedModule</text></g><g id="edge13" class="edge"><title>SharedModule-&gt;HomeModule</title><path fill="none" stroke="#000" d="M391,-122.0267C391,-142.7672 391,-174 391,-174 391,-174 1094.9703,-174 1094.9703,-174"/><polygon fill="#000" stroke="#000" points="1094.97 -177.5 1104.97 -174 1094.97 -170.5 1094.97 -177.5"/></g><g id="node15" class="node"><title>ProductActions</title><ellipse cx="247" cy="-104" fill="#fdb462" stroke="#000" rx="71.227" ry="18"/><text x="247" y="-99.8" fill="#000" font-family="Times,serif" font-size="14" text-anchor="middle">ProductActions</text></g><g id="edge14" class="edge"><title>ProductActions-&gt;HomeModule</title><path fill="none" stroke="#000" d="M247,-122.2921C247,-144.2057 247,-178 247,-178 247,-178 1094.9337,-178 1094.9337,-178"/><polygon fill="#000" stroke="#000" points="1094.934 -181.5 1104.934 -178 1094.934 -174.5 1094.934 -181.5"/></g><g id="node16" class="node"><title>SearchActions</title><ellipse cx="91" cy="-104" fill="#fdb462" stroke="#000" rx="67.193" ry="18"/><text x="91" y="-99.8" fill="#000" font-family="Times,serif" font-size="14" text-anchor="middle">SearchActions</text></g><g id="edge15" class="edge"><title>SearchActions-&gt;HomeModule</title><path fill="none" stroke="#000" d="M91,-122.3228C91,-145.6602 91,-183 91,-183 91,-183 1095.0411,-183 1095.0411,-183"/><polygon fill="#000" stroke="#000" points="1095.041 -186.5 1105.041 -183 1095.041 -179.5 1095.041 -186.5"/></g></g></svg>