<svg xmlns="http://www.w3.org/2000/svg" xmlns:svg="http://www.w3.org/2000/svg" id="svg2" width="542.99" height="542.99" version="1.1"><metadata id="metadata7"/><g id="layer1" transform="translate(-109.30421,14.576914)"><g id="g3075" transform="matrix(-0.34202014,0.93969262,-0.93969262,-0.34202014,789.34114,36.353292)"><path id="path254" d="m 126.98485,359.06758 340,0 0,-65 -340,0 0,65 z" style="fill:#f03949;fill-opacity:1;fill-rule:nonzero;stroke:none"/><path id="path256" d="m 306.35985,326.56758 c 0,-13.46125 -10.9125,-24.37375 -24.37375,-24.37375 -13.46125,0 -24.37375,10.9125 -24.37375,24.37375 0,13.46125 10.9125,24.37375 24.37375,24.37375 13.46125,0 24.37375,-10.9125 24.37375,-24.37375" style="fill:#f78f22;fill-opacity:1;fill-rule:nonzero;stroke:none"/><path id="path266" d="m 173.23485,359.06758 28.75,0 0,-65 -28.75,0 0,65 z" style="fill:#1a3a5c;fill-opacity:1;fill-rule:nonzero;stroke:none"/><path id="path268" d="m 466.98485,326.56758 -27.5,0 0,-32.5 27.5,0 0,32.5 m -41.25,0 -38.78935,0.25254 -1.26269,-32.24746 62.02286,1.01015 -2.77792,31.23731 m -57.9429,-0.25254 -10,0 0,-32.5 10,0 0,32.5 m -23.75,0 -56.875,0 0,0 c 0,-13.46125 -10.9125,-24.37375 -24.37375,-24.37375 -13.46125,0 -24.37375,10.9125 -24.37375,24.37375 l -55.6275,0 0,-32.5 176.40229,0.25254 1.01015,32.5" style="fill:#e73440;fill-opacity:1;fill-rule:nonzero;stroke:none"/><path id="path258" d="m 383.23485,359.06758 13.75,0 0,-65 -13.75,0 0,65 z" style="fill:#3f1928;fill-opacity:1;fill-rule:nonzero;stroke:none"/><path id="path260" d="m 405.73485,359.06758 13.75,0 0,-65 -13.75,0 0,65 z" style="fill:#3f1928;fill-opacity:1;fill-rule:nonzero;stroke:none"/><path id="path278" d="m 173.23485,326.56758 -7.5,0 0,-32.5 7.5,0 0,32.5 m -21.25,0 -25,0 0,-32.5 25,0 0,32.5" style="fill:#e73440;fill-opacity:1;fill-rule:nonzero;stroke:none"/><path id="path280" d="m 151.98485,326.56758 13.75,0 0,-32.5 -13.75,0 0,32.5 z" style="fill:#e73440;fill-opacity:1;fill-rule:nonzero;stroke:none"/><path id="path282" d="m 173.23485,326.56758 28.75,0 0,-32.5 -28.75,0 0,32.5 z" style="fill:#183452;fill-opacity:1;fill-rule:nonzero;stroke:none"/></g><g id="g3914" transform="translate(16.162441,0.605492)"><rect style="fill:#5cc0ae;fill-opacity:1" id="rect3090" width="180" height="44.286" x="-77.023" y="209.842" transform="matrix(0.70710678,-0.70710678,0.70710678,0.70710678,0,0)"/><rect style="fill:#f1c40f;fill-opacity:1" id="rect3090-7-2" width="180" height="44.286" x="209.697" y="33.689" transform="matrix(0.70710678,0.70710678,-0.70710678,0.70710678,0,0)"/></g><g id="g3919" transform="translate(-2.0203046,-106.78207)"><rect style="fill:#3498db;fill-opacity:1" id="rect3090-7" width="180" height="44.286" x="502.176" y="-242.995" transform="matrix(0.70710678,0.70710678,-0.70710678,0.70710678,0,0)"/><path id="rect3090-7-2-4" d="m 623.00576,279.17227 -127.28125,127.28125 31.3125,31.3125 127.28125,-127.28125 -31.3125,-31.3125 z" style="fill:#f03949;fill-opacity:1"/></g><flowRoot id="flowRoot3935" transform="translate(109.30421,32.871674)" xml:space="preserve" style="font-size:40px;font-style:normal;font-weight:400;line-height:125%;letter-spacing:0;word-spacing:0;fill:#000;fill-opacity:1;stroke:none;font-family:Sans"><flowRegion id="flowRegion3937"><rect id="rect3939" width="355.574" height="240.416" x="331.33" y="610.32"/></flowRegion><flowPara id="flowPara3941"/></flowRoot><text style="font-size:40px;font-style:normal;font-weight:400;line-height:125%;letter-spacing:0;word-spacing:0;fill:#000;fill-opacity:1;stroke:none;font-family:Sans" id="text3943-1-6-0" x="174.282" y="473.338" xml:space="preserve"><tspan id="tspan3945-0-0-5" x="174.282" y="473.338" style="font-size:90px;font-style:normal;font-variant:normal;font-weight:700;font-stretch:normal;font-family:Lato;-inkscape-font-specification:Lato Bold">compo</tspan></text><text style="font-size:40px;font-style:normal;font-weight:400;line-height:125%;letter-spacing:0;word-spacing:0;fill:#000;fill-opacity:1;stroke:none;font-family:Sans" id="text3947-4-8-1" x="446.841" y="472.676" xml:space="preserve"><tspan id="tspan3949-8-3-1" x="446.841" y="472.676" style="font-size:90px;font-style:normal;font-variant:normal;font-weight:300;font-stretch:normal;font-family:Lato;-inkscape-font-specification:Lato Light">doc</tspan></text></g></svg>