<svg xmlns="http://www.w3.org/2000/svg" xmlns:xlink="http://www.w3.org/1999/xlink" width="1667pt" height="284pt" viewBox="0 0 1667 284"><g id="graph0" class="graph" transform="scale(1 1) rotate(0) translate(4 280)"><title>dependencies</title><polygon fill="#fff" stroke="transparent" points="-4 4 -4 -280 1663 -280 1663 4 -4 4"/><text x="808.509" y="-42.4" fill="#000" font-family="sans-serif" font-size="14" font-weight="bold" text-anchor="start">Legend</text><polygon fill="#ffffb3" stroke="transparent" points="595.5 -10 595.5 -30 615.5 -30 615.5 -10 595.5 -10"/><text x="619.129" y="-15.4" fill="#000" font-family="sans-serif" font-size="14" text-anchor="start">Declarations</text><polygon fill="#8dd3c7" stroke="transparent" points="708.5 -10 708.5 -30 728.5 -30 728.5 -10 708.5 -10"/><text x="732.225" y="-15.4" fill="#000" font-family="sans-serif" font-size="14" text-anchor="start">Module</text><polygon fill="#80b1d3" stroke="transparent" points="794.5 -10 794.5 -30 814.5 -30 814.5 -10 794.5 -10"/><text x="818.281" y="-15.4" fill="#000" font-family="sans-serif" font-size="14" text-anchor="start">Bootstrap</text><polygon fill="#fdb462" stroke="transparent" points="891.5 -10 891.5 -30 911.5 -30 911.5 -10 891.5 -10"/><text x="915.173" y="-15.4" fill="#000" font-family="sans-serif" font-size="14" text-anchor="start">Providers</text><polygon fill="#fb8072" stroke="transparent" points="987.5 -10 987.5 -30 1007.5 -30 1007.5 -10 987.5 -10"/><text x="1011.226" y="-15.4" fill="#000" font-family="sans-serif" font-size="14" text-anchor="start">Exports</text><g id="clust1" class="cluster"><title>cluster_ProductModule</title><polygon fill="none" stroke="#000" stroke-dasharray="1 5" points="8 -70 8 -268 1651 -268 1651 -70 8 -70"/></g><g id="clust2" class="cluster"><title>cluster_ProductModule_declarations</title><polygon fill="none" stroke="#000" points="338 -78 338 -130 1643 -130 1643 -78 338 -78"/></g><g id="clust10" class="cluster"><title>cluster_ProductModule_imports</title><polygon fill="none" stroke="#000" points="16 -78 16 -130 330 -130 330 -78 16 -78"/></g><g id="clust11" class="cluster"><title>cluster_ProductModule_exports</title><polygon fill="none" stroke="#000" points="233 -208 233 -260 1416 -260 1416 -208 233 -208"/></g><g id="node1" class="node"><title>ProductDetailPageComponent</title><polygon fill="#ffffb3" stroke="#000" points="1635.3 -122 1448.7 -122 1448.7 -86 1635.3 -86 1635.3 -122"/><text x="1542" y="-99.8" fill="#000" font-family="Times,serif" font-size="14" text-anchor="middle">ProductDetailPageComponent</text></g><g id="node8" class="node"><title>ProductModule</title><polygon fill="#8dd3c7" stroke="#000" points="884.598 -187 881.598 -191 860.598 -191 857.598 -187 781.402 -187 781.402 -151 884.598 -151 884.598 -187"/><text x="833" y="-164.8" fill="#000" font-family="Times,serif" font-size="14" text-anchor="middle">ProductModule</text></g><g id="edge1" class="edge"><title>ProductDetailPageComponent-&gt;ProductModule</title><path fill="none" stroke="#000" d="M1542,-122.2228C1542,-142.3652 1542,-172 1542,-172 1542,-172 894.5606,-172 894.5606,-172"/><polygon fill="#000" stroke="#000" points="894.561 -168.5 884.561 -172 894.561 -175.5 894.561 -168.5"/></g><g id="node2" class="node"><title>ProductComponent</title><polygon fill="#ffffb3" stroke="#000" points="1430.381 -122 1305.619 -122 1305.619 -86 1430.381 -86 1430.381 -122"/><text x="1368" y="-99.8" fill="#000" font-family="Times,serif" font-size="14" text-anchor="middle">ProductComponent</text></g><g id="edge2" class="edge"><title>ProductComponent-&gt;ProductModule</title><path fill="none" stroke="#000" d="M1356.7299,-122.2222C1356.7299,-140.8285 1356.7299,-167 1356.7299,-167 1356.7299,-167 894.6506,-167 894.6506,-167"/><polygon fill="#000" stroke="#000" points="894.651 -163.5 884.651 -167 894.65 -170.5 894.651 -163.5"/></g><g id="node3" class="node"><title>ProductDetailsComponent</title><polygon fill="#ffffb3" stroke="#000" points="1287.034 -122 1122.966 -122 1122.966 -86 1287.034 -86 1287.034 -122"/><text x="1205" y="-99.8" fill="#000" font-family="Times,serif" font-size="14" text-anchor="middle">ProductDetailsComponent</text></g><g id="edge3" class="edge"><title>ProductDetailsComponent-&gt;ProductModule</title><path fill="none" stroke="#000" d="M1161.375,-122.0336C1161.375,-139.0597 1161.375,-162 1161.375,-162 1161.375,-162 894.6698,-162 894.6698,-162"/><polygon fill="#000" stroke="#000" points="894.67 -158.5 884.67 -162 894.67 -165.5 894.67 -158.5"/></g><g id="node4" class="node"><title>ProductImagesComponent</title><polygon fill="#ffffb3" stroke="#000" points="1104.806 -122 939.194 -122 939.194 -86 1104.806 -86 1104.806 -122"/><text x="1022" y="-99.8" fill="#000" font-family="Times,serif" font-size="14" text-anchor="middle">ProductImagesComponent</text></g><g id="edge4" class="edge"><title>ProductImagesComponent-&gt;ProductModule</title><path fill="none" stroke="#000" d="M976.875,-122.2396C976.875,-137.5706 976.875,-157 976.875,-157 976.875,-157 894.9422,-157 894.9422,-157"/><polygon fill="#000" stroke="#000" points="894.942 -153.5 884.942 -157 894.942 -160.5 894.942 -153.5"/></g><g id="node5" class="node"><title>ProductPriceInfoComponent</title><polygon fill="#ffffb3" stroke="#000" points="921.465 -122 744.535 -122 744.535 -86 921.465 -86 921.465 -122"/><text x="833" y="-99.8" fill="#000" font-family="Times,serif" font-size="14" text-anchor="middle">ProductPriceInfoComponent</text></g><g id="edge5" class="edge"><title>ProductPriceInfoComponent-&gt;ProductModule</title><path fill="none" stroke="#000" d="M833,-122.1061C833,-122.1061 833,-140.991 833,-140.991"/><polygon fill="#000" stroke="#000" points="829.5 -140.991 833 -150.991 836.5 -140.991 829.5 -140.991"/></g><g id="node6" class="node"><title>ProductDescriptionComponent</title><polygon fill="#ffffb3" stroke="#000" points="726.194 -122 535.806 -122 535.806 -86 726.194 -86 726.194 -122"/><text x="631" y="-99.8" fill="#000" font-family="Times,serif" font-size="14" text-anchor="middle">ProductDescriptionComponent</text></g><g id="edge6" class="edge"><title>ProductDescriptionComponent-&gt;ProductModule</title><path fill="none" stroke="#000" d="M686.4322,-122.2396C686.4322,-137.5706 686.4322,-157 686.4322,-157 686.4322,-157 771.3257,-157 771.3257,-157"/><polygon fill="#000" stroke="#000" points="771.326 -160.5 781.326 -157 771.326 -153.5 771.326 -160.5"/></g><g id="node7" class="node"><title>ProductVariantsComponent</title><polygon fill="#ffffb3" stroke="#000" points="518.303 -122 345.697 -122 345.697 -86 518.303 -86 518.303 -122"/><text x="432" y="-99.8" fill="#000" font-family="Times,serif" font-size="14" text-anchor="middle">ProductVariantsComponent</text></g><g id="edge7" class="edge"><title>ProductVariantsComponent-&gt;ProductModule</title><path fill="none" stroke="#000" d="M476.6524,-122.0336C476.6524,-139.0597 476.6524,-162 476.6524,-162 476.6524,-162 771.184,-162 771.184,-162"/><polygon fill="#000" stroke="#000" points="771.184 -165.5 781.184 -162 771.184 -158.5 771.184 -165.5"/></g><g id="node11" class="node"><title>ProductDetailPageComponent</title><polygon fill="#fb8072" stroke="#000" points="1407.8 -252 1218.2 -252 1218.2 -216 1407.8 -216 1407.8 -252"/><text x="1313" y="-229.8" fill="#000" font-family="Times,serif" font-size="14" text-anchor="middle">ProductDetailPageComponent</text></g><g id="edge10" class="edge"><title>ProductModule-&gt;ProductDetailPageComponent</title><path fill="none" stroke="#000" stroke-dasharray="5 2" d="M884.8823,-177C997.1689,-177 1252.6832,-177 1252.6832,-177 1252.6832,-177 1252.6832,-205.9648 1252.6832,-205.9648"/><polygon fill="#000" stroke="#000" points="1249.183 -205.965 1252.683 -215.965 1256.183 -205.965 1249.183 -205.965"/></g><g id="node12" class="node"><title>ProductDetailsComponent</title><polygon fill="#fb8072" stroke="#000" points="1200.033 -252 1031.967 -252 1031.967 -216 1200.033 -216 1200.033 -252"/><text x="1116" y="-229.8" fill="#000" font-family="Times,serif" font-size="14" text-anchor="middle">ProductDetailsComponent</text></g><g id="edge11" class="edge"><title>ProductModule-&gt;ProductDetailsComponent</title><path fill="none" stroke="#000" stroke-dasharray="5 2" d="M884.6416,-182C953.9114,-182 1068.3182,-182 1068.3182,-182 1068.3182,-182 1068.3182,-205.8129 1068.3182,-205.8129"/><polygon fill="#000" stroke="#000" points="1064.818 -205.813 1068.318 -215.813 1071.818 -205.813 1064.818 -205.813"/></g><g id="node13" class="node"><title>ProductImagesComponent</title><polygon fill="#fb8072" stroke="#000" points="1014.306 -252 845.694 -252 845.694 -216 1014.306 -216 1014.306 -252"/><text x="930" y="-229.8" fill="#000" font-family="Times,serif" font-size="14" text-anchor="middle">ProductImagesComponent</text></g><g id="edge12" class="edge"><title>ProductModule-&gt;ProductImagesComponent</title><path fill="none" stroke="#000" stroke-dasharray="5 2" d="M865.0731,-187.1061C865.0731,-187.1061 865.0731,-205.991 865.0731,-205.991"/><polygon fill="#000" stroke="#000" points="861.573 -205.991 865.073 -215.991 868.573 -205.991 861.573 -205.991"/></g><g id="node14" class="node"><title>ProductPriceInfoComponent</title><polygon fill="#fb8072" stroke="#000" points="827.466 -252 646.534 -252 646.534 -216 827.466 -216 827.466 -252"/><text x="737" y="-229.8" fill="#000" font-family="Times,serif" font-size="14" text-anchor="middle">ProductPriceInfoComponent</text></g><g id="edge13" class="edge"><title>ProductModule-&gt;ProductPriceInfoComponent</title><path fill="none" stroke="#000" stroke-dasharray="5 2" d="M804.3417,-187.1061C804.3417,-187.1061 804.3417,-205.991 804.3417,-205.991"/><polygon fill="#000" stroke="#000" points="800.842 -205.991 804.342 -215.991 807.842 -205.991 800.842 -205.991"/></g><g id="node15" class="node"><title>ProductDescriptionComponent</title><polygon fill="#fb8072" stroke="#000" points="628.694 -252 435.306 -252 435.306 -216 628.694 -216 628.694 -252"/><text x="532" y="-229.8" fill="#000" font-family="Times,serif" font-size="14" text-anchor="middle">ProductDescriptionComponent</text></g><g id="edge14" class="edge"><title>ProductModule-&gt;ProductDescriptionComponent</title><path fill="none" stroke="#000" stroke-dasharray="5 2" d="M781.3742,-182C708.0071,-182 582.375,-182 582.375,-182 582.375,-182 582.375,-205.8129 582.375,-205.8129"/><polygon fill="#000" stroke="#000" points="578.875 -205.813 582.375 -215.813 585.875 -205.813 578.875 -205.813"/></g><g id="node16" class="node"><title>ProductVariantsComponent</title><polygon fill="#fb8072" stroke="#000" points="416.803 -252 241.197 -252 241.197 -216 416.803 -216 416.803 -252"/><text x="329" y="-229.8" fill="#000" font-family="Times,serif" font-size="14" text-anchor="middle">ProductVariantsComponent</text></g><g id="edge15" class="edge"><title>ProductModule-&gt;ProductVariantsComponent</title><path fill="none" stroke="#000" stroke-dasharray="5 2" d="M781.1929,-177C662.5656,-177 381.375,-177 381.375,-177 381.375,-177 381.375,-205.9648 381.375,-205.9648"/><polygon fill="#000" stroke="#000" points="377.875 -205.965 381.375 -215.965 384.875 -205.965 377.875 -205.965"/></g><g id="node9" class="node"><title>SharedModule</title><polygon fill="#8dd3c7" stroke="#000" points="322.423 -122 319.423 -126 298.423 -126 295.423 -122 223.577 -122 223.577 -86 322.423 -86 322.423 -122"/><text x="273" y="-99.8" fill="#000" font-family="Times,serif" font-size="14" text-anchor="middle">SharedModule</text></g><g id="edge8" class="edge"><title>SharedModule-&gt;ProductModule</title><path fill="none" stroke="#000" d="M281.6548,-122.2222C281.6548,-140.8285 281.6548,-167 281.6548,-167 281.6548,-167 771.1308,-167 771.1308,-167"/><polygon fill="#000" stroke="#000" points="771.131 -170.5 781.131 -167 771.131 -163.5 771.131 -170.5"/></g><g id="node10" class="node"><title>RouterModule.forChild(args)</title><polygon fill="#8dd3c7" stroke="#000" points="205.732 -122 202.732 -126 181.732 -126 178.732 -122 24.268 -122 24.268 -86 205.732 -86 205.732 -122"/><text x="115" y="-99.8" fill="#000" font-family="Times,serif" font-size="14" text-anchor="middle">RouterModule.forChild(args)</text></g><g id="edge9" class="edge"><title>RouterModule.forChild(args)-&gt;ProductModule</title><path fill="none" stroke="#000" d="M115,-122.2228C115,-142.3652 115,-172 115,-172 115,-172 771.3632,-172 771.3632,-172"/><polygon fill="#000" stroke="#000" points="771.363 -175.5 781.363 -172 771.363 -168.5 771.363 -175.5"/></g></g></svg>